<mxfile host="app.diagrams.net" agent="Mozilla/5.0 (Windows NT 10.0; Win64; x64) AppleWebKit/537.36 (KHTML, like Gecko) Chrome/128.0.0.0 Safari/537.36" version="24.7.7">
  <diagram name="Page-1" id="3SBQk9k1WXUgz5R2TczT">
    <mxGraphModel dx="3027" dy="1089" grid="1" gridSize="10" guides="1" tooltips="1" connect="1" arrows="1" fold="1" page="1" pageScale="1" pageWidth="827" pageHeight="1169" math="0" shadow="0">
      <root>
        <mxCell id="0" />
        <mxCell id="1" parent="0" />
        <mxCell id="tA-CkoTOrNPdyP2uNprh-212" value="`dreamapp_adminlogin`" style="shape=table;startSize=30;container=1;collapsible=1;childLayout=tableLayout;fixedRows=1;rowLines=0;fontStyle=1;align=center;resizeLast=1;" vertex="1" parent="1">
          <mxGeometry x="-700" y="70" width="280" height="120" as="geometry" />
        </mxCell>
        <mxCell id="tA-CkoTOrNPdyP2uNprh-213" value="" style="shape=tableRow;horizontal=0;startSize=0;swimlaneHead=0;swimlaneBody=0;fillColor=none;collapsible=0;dropTarget=0;points=[[0,0.5],[1,0.5]];portConstraint=eastwest;strokeColor=inherit;top=0;left=0;right=0;bottom=1;" vertex="1" parent="tA-CkoTOrNPdyP2uNprh-212">
          <mxGeometry y="30" width="280" height="30" as="geometry" />
        </mxCell>
        <mxCell id="tA-CkoTOrNPdyP2uNprh-214" value="PK" style="shape=partialRectangle;overflow=hidden;connectable=0;fillColor=none;strokeColor=inherit;top=0;left=0;bottom=0;right=0;fontStyle=1;" vertex="1" parent="tA-CkoTOrNPdyP2uNprh-213">
          <mxGeometry width="30" height="30" as="geometry">
            <mxRectangle width="30" height="30" as="alternateBounds" />
          </mxGeometry>
        </mxCell>
        <mxCell id="tA-CkoTOrNPdyP2uNprh-215" value="`id` bigint NOT NULL AUTO_INCREMENT" style="shape=partialRectangle;overflow=hidden;connectable=0;fillColor=none;align=left;strokeColor=inherit;top=0;left=0;bottom=0;right=0;spacingLeft=6;fontStyle=5;" vertex="1" parent="tA-CkoTOrNPdyP2uNprh-213">
          <mxGeometry x="30" width="250" height="30" as="geometry">
            <mxRectangle width="250" height="30" as="alternateBounds" />
          </mxGeometry>
        </mxCell>
        <mxCell id="tA-CkoTOrNPdyP2uNprh-216" value="" style="shape=tableRow;horizontal=0;startSize=0;swimlaneHead=0;swimlaneBody=0;fillColor=none;collapsible=0;dropTarget=0;points=[[0,0.5],[1,0.5]];portConstraint=eastwest;strokeColor=inherit;top=0;left=0;right=0;bottom=0;" vertex="1" parent="tA-CkoTOrNPdyP2uNprh-212">
          <mxGeometry y="60" width="280" height="30" as="geometry" />
        </mxCell>
        <mxCell id="tA-CkoTOrNPdyP2uNprh-217" value="" style="shape=partialRectangle;overflow=hidden;connectable=0;fillColor=none;strokeColor=inherit;top=0;left=0;bottom=0;right=0;" vertex="1" parent="tA-CkoTOrNPdyP2uNprh-216">
          <mxGeometry width="30" height="30" as="geometry">
            <mxRectangle width="30" height="30" as="alternateBounds" />
          </mxGeometry>
        </mxCell>
        <mxCell id="tA-CkoTOrNPdyP2uNprh-218" value="`email` varchar(100) NOT NULL" style="shape=partialRectangle;overflow=hidden;connectable=0;fillColor=none;align=left;strokeColor=inherit;top=0;left=0;bottom=0;right=0;spacingLeft=6;" vertex="1" parent="tA-CkoTOrNPdyP2uNprh-216">
          <mxGeometry x="30" width="250" height="30" as="geometry">
            <mxRectangle width="250" height="30" as="alternateBounds" />
          </mxGeometry>
        </mxCell>
        <mxCell id="tA-CkoTOrNPdyP2uNprh-219" value="" style="shape=tableRow;horizontal=0;startSize=0;swimlaneHead=0;swimlaneBody=0;fillColor=none;collapsible=0;dropTarget=0;points=[[0,0.5],[1,0.5]];portConstraint=eastwest;strokeColor=inherit;top=0;left=0;right=0;bottom=0;" vertex="1" parent="tA-CkoTOrNPdyP2uNprh-212">
          <mxGeometry y="90" width="280" height="30" as="geometry" />
        </mxCell>
        <mxCell id="tA-CkoTOrNPdyP2uNprh-220" value="" style="shape=partialRectangle;overflow=hidden;connectable=0;fillColor=none;strokeColor=inherit;top=0;left=0;bottom=0;right=0;" vertex="1" parent="tA-CkoTOrNPdyP2uNprh-219">
          <mxGeometry width="30" height="30" as="geometry">
            <mxRectangle width="30" height="30" as="alternateBounds" />
          </mxGeometry>
        </mxCell>
        <mxCell id="tA-CkoTOrNPdyP2uNprh-221" value="`password` varchar(20) NOT NULL" style="shape=partialRectangle;overflow=hidden;connectable=0;fillColor=none;align=left;strokeColor=inherit;top=0;left=0;bottom=0;right=0;spacingLeft=6;" vertex="1" parent="tA-CkoTOrNPdyP2uNprh-219">
          <mxGeometry x="30" width="250" height="30" as="geometry">
            <mxRectangle width="250" height="30" as="alternateBounds" />
          </mxGeometry>
        </mxCell>
        <mxCell id="tA-CkoTOrNPdyP2uNprh-222" value="`dreamapp_category`" style="shape=table;startSize=30;container=1;collapsible=1;childLayout=tableLayout;fixedRows=1;rowLines=0;fontStyle=1;align=center;resizeLast=1;" vertex="1" parent="1">
          <mxGeometry x="-700" y="250" width="280" height="90" as="geometry" />
        </mxCell>
        <mxCell id="tA-CkoTOrNPdyP2uNprh-223" value="" style="shape=tableRow;horizontal=0;startSize=0;swimlaneHead=0;swimlaneBody=0;fillColor=none;collapsible=0;dropTarget=0;points=[[0,0.5],[1,0.5]];portConstraint=eastwest;strokeColor=inherit;top=0;left=0;right=0;bottom=1;" vertex="1" parent="tA-CkoTOrNPdyP2uNprh-222">
          <mxGeometry y="30" width="280" height="30" as="geometry" />
        </mxCell>
        <mxCell id="tA-CkoTOrNPdyP2uNprh-224" value="PK" style="shape=partialRectangle;overflow=hidden;connectable=0;fillColor=none;strokeColor=inherit;top=0;left=0;bottom=0;right=0;fontStyle=1;" vertex="1" parent="tA-CkoTOrNPdyP2uNprh-223">
          <mxGeometry width="30" height="30" as="geometry">
            <mxRectangle width="30" height="30" as="alternateBounds" />
          </mxGeometry>
        </mxCell>
        <mxCell id="tA-CkoTOrNPdyP2uNprh-225" value="`id` bigint NOT NULL AUTO_INCREMENT" style="shape=partialRectangle;overflow=hidden;connectable=0;fillColor=none;align=left;strokeColor=inherit;top=0;left=0;bottom=0;right=0;spacingLeft=6;fontStyle=5;" vertex="1" parent="tA-CkoTOrNPdyP2uNprh-223">
          <mxGeometry x="30" width="250" height="30" as="geometry">
            <mxRectangle width="250" height="30" as="alternateBounds" />
          </mxGeometry>
        </mxCell>
        <mxCell id="tA-CkoTOrNPdyP2uNprh-226" value="" style="shape=tableRow;horizontal=0;startSize=0;swimlaneHead=0;swimlaneBody=0;fillColor=none;collapsible=0;dropTarget=0;points=[[0,0.5],[1,0.5]];portConstraint=eastwest;strokeColor=inherit;top=0;left=0;right=0;bottom=0;" vertex="1" parent="tA-CkoTOrNPdyP2uNprh-222">
          <mxGeometry y="60" width="280" height="30" as="geometry" />
        </mxCell>
        <mxCell id="tA-CkoTOrNPdyP2uNprh-227" value="" style="shape=partialRectangle;overflow=hidden;connectable=0;fillColor=none;strokeColor=inherit;top=0;left=0;bottom=0;right=0;" vertex="1" parent="tA-CkoTOrNPdyP2uNprh-226">
          <mxGeometry width="30" height="30" as="geometry">
            <mxRectangle width="30" height="30" as="alternateBounds" />
          </mxGeometry>
        </mxCell>
        <mxCell id="tA-CkoTOrNPdyP2uNprh-228" value="`title` varchar(80) NOT NULL" style="shape=partialRectangle;overflow=hidden;connectable=0;fillColor=none;align=left;strokeColor=inherit;top=0;left=0;bottom=0;right=0;spacingLeft=6;" vertex="1" parent="tA-CkoTOrNPdyP2uNprh-226">
          <mxGeometry x="30" width="250" height="30" as="geometry">
            <mxRectangle width="250" height="30" as="alternateBounds" />
          </mxGeometry>
        </mxCell>
        <mxCell id="tA-CkoTOrNPdyP2uNprh-229" value="`dreamapp_contact`" style="shape=table;startSize=30;container=1;collapsible=1;childLayout=tableLayout;fixedRows=1;rowLines=0;fontStyle=1;align=center;resizeLast=1;" vertex="1" parent="1">
          <mxGeometry x="-700" y="390" width="280" height="180" as="geometry" />
        </mxCell>
        <mxCell id="tA-CkoTOrNPdyP2uNprh-230" value="" style="shape=tableRow;horizontal=0;startSize=0;swimlaneHead=0;swimlaneBody=0;fillColor=none;collapsible=0;dropTarget=0;points=[[0,0.5],[1,0.5]];portConstraint=eastwest;strokeColor=inherit;top=0;left=0;right=0;bottom=1;" vertex="1" parent="tA-CkoTOrNPdyP2uNprh-229">
          <mxGeometry y="30" width="280" height="30" as="geometry" />
        </mxCell>
        <mxCell id="tA-CkoTOrNPdyP2uNprh-231" value="PK" style="shape=partialRectangle;overflow=hidden;connectable=0;fillColor=none;strokeColor=inherit;top=0;left=0;bottom=0;right=0;fontStyle=1;" vertex="1" parent="tA-CkoTOrNPdyP2uNprh-230">
          <mxGeometry width="30" height="30" as="geometry">
            <mxRectangle width="30" height="30" as="alternateBounds" />
          </mxGeometry>
        </mxCell>
        <mxCell id="tA-CkoTOrNPdyP2uNprh-232" value="`id` bigint NOT NULL AUTO_INCREMENT" style="shape=partialRectangle;overflow=hidden;connectable=0;fillColor=none;align=left;strokeColor=inherit;top=0;left=0;bottom=0;right=0;spacingLeft=6;fontStyle=5;" vertex="1" parent="tA-CkoTOrNPdyP2uNprh-230">
          <mxGeometry x="30" width="250" height="30" as="geometry">
            <mxRectangle width="250" height="30" as="alternateBounds" />
          </mxGeometry>
        </mxCell>
        <mxCell id="tA-CkoTOrNPdyP2uNprh-233" value="" style="shape=tableRow;horizontal=0;startSize=0;swimlaneHead=0;swimlaneBody=0;fillColor=none;collapsible=0;dropTarget=0;points=[[0,0.5],[1,0.5]];portConstraint=eastwest;strokeColor=inherit;top=0;left=0;right=0;bottom=0;" vertex="1" parent="tA-CkoTOrNPdyP2uNprh-229">
          <mxGeometry y="60" width="280" height="30" as="geometry" />
        </mxCell>
        <mxCell id="tA-CkoTOrNPdyP2uNprh-234" value="" style="shape=partialRectangle;overflow=hidden;connectable=0;fillColor=none;strokeColor=inherit;top=0;left=0;bottom=0;right=0;" vertex="1" parent="tA-CkoTOrNPdyP2uNprh-233">
          <mxGeometry width="30" height="30" as="geometry">
            <mxRectangle width="30" height="30" as="alternateBounds" />
          </mxGeometry>
        </mxCell>
        <mxCell id="tA-CkoTOrNPdyP2uNprh-235" value="`message` longtext NOT NULL" style="shape=partialRectangle;overflow=hidden;connectable=0;fillColor=none;align=left;strokeColor=inherit;top=0;left=0;bottom=0;right=0;spacingLeft=6;" vertex="1" parent="tA-CkoTOrNPdyP2uNprh-233">
          <mxGeometry x="30" width="250" height="30" as="geometry">
            <mxRectangle width="250" height="30" as="alternateBounds" />
          </mxGeometry>
        </mxCell>
        <mxCell id="tA-CkoTOrNPdyP2uNprh-236" value="" style="shape=tableRow;horizontal=0;startSize=0;swimlaneHead=0;swimlaneBody=0;fillColor=none;collapsible=0;dropTarget=0;points=[[0,0.5],[1,0.5]];portConstraint=eastwest;strokeColor=inherit;top=0;left=0;right=0;bottom=0;" vertex="1" parent="tA-CkoTOrNPdyP2uNprh-229">
          <mxGeometry y="90" width="280" height="30" as="geometry" />
        </mxCell>
        <mxCell id="tA-CkoTOrNPdyP2uNprh-237" value="" style="shape=partialRectangle;overflow=hidden;connectable=0;fillColor=none;strokeColor=inherit;top=0;left=0;bottom=0;right=0;" vertex="1" parent="tA-CkoTOrNPdyP2uNprh-236">
          <mxGeometry width="30" height="30" as="geometry">
            <mxRectangle width="30" height="30" as="alternateBounds" />
          </mxGeometry>
        </mxCell>
        <mxCell id="tA-CkoTOrNPdyP2uNprh-238" value="`name` varchar(50) NOT NULL" style="shape=partialRectangle;overflow=hidden;connectable=0;fillColor=none;align=left;strokeColor=inherit;top=0;left=0;bottom=0;right=0;spacingLeft=6;" vertex="1" parent="tA-CkoTOrNPdyP2uNprh-236">
          <mxGeometry x="30" width="250" height="30" as="geometry">
            <mxRectangle width="250" height="30" as="alternateBounds" />
          </mxGeometry>
        </mxCell>
        <mxCell id="tA-CkoTOrNPdyP2uNprh-239" value="" style="shape=tableRow;horizontal=0;startSize=0;swimlaneHead=0;swimlaneBody=0;fillColor=none;collapsible=0;dropTarget=0;points=[[0,0.5],[1,0.5]];portConstraint=eastwest;strokeColor=inherit;top=0;left=0;right=0;bottom=0;" vertex="1" parent="tA-CkoTOrNPdyP2uNprh-229">
          <mxGeometry y="120" width="280" height="30" as="geometry" />
        </mxCell>
        <mxCell id="tA-CkoTOrNPdyP2uNprh-240" value="" style="shape=partialRectangle;overflow=hidden;connectable=0;fillColor=none;strokeColor=inherit;top=0;left=0;bottom=0;right=0;" vertex="1" parent="tA-CkoTOrNPdyP2uNprh-239">
          <mxGeometry width="30" height="30" as="geometry">
            <mxRectangle width="30" height="30" as="alternateBounds" />
          </mxGeometry>
        </mxCell>
        <mxCell id="tA-CkoTOrNPdyP2uNprh-241" value="`email` varchar(254) NOT NULL" style="shape=partialRectangle;overflow=hidden;connectable=0;fillColor=none;align=left;strokeColor=inherit;top=0;left=0;bottom=0;right=0;spacingLeft=6;" vertex="1" parent="tA-CkoTOrNPdyP2uNprh-239">
          <mxGeometry x="30" width="250" height="30" as="geometry">
            <mxRectangle width="250" height="30" as="alternateBounds" />
          </mxGeometry>
        </mxCell>
        <mxCell id="tA-CkoTOrNPdyP2uNprh-242" value="" style="shape=tableRow;horizontal=0;startSize=0;swimlaneHead=0;swimlaneBody=0;fillColor=none;collapsible=0;dropTarget=0;points=[[0,0.5],[1,0.5]];portConstraint=eastwest;strokeColor=inherit;top=0;left=0;right=0;bottom=0;" vertex="1" parent="tA-CkoTOrNPdyP2uNprh-229">
          <mxGeometry y="150" width="280" height="30" as="geometry" />
        </mxCell>
        <mxCell id="tA-CkoTOrNPdyP2uNprh-243" value="" style="shape=partialRectangle;overflow=hidden;connectable=0;fillColor=none;strokeColor=inherit;top=0;left=0;bottom=0;right=0;" vertex="1" parent="tA-CkoTOrNPdyP2uNprh-242">
          <mxGeometry width="30" height="30" as="geometry">
            <mxRectangle width="30" height="30" as="alternateBounds" />
          </mxGeometry>
        </mxCell>
        <mxCell id="tA-CkoTOrNPdyP2uNprh-244" value="`subject` longtext NOT NULL" style="shape=partialRectangle;overflow=hidden;connectable=0;fillColor=none;align=left;strokeColor=inherit;top=0;left=0;bottom=0;right=0;spacingLeft=6;" vertex="1" parent="tA-CkoTOrNPdyP2uNprh-242">
          <mxGeometry x="30" width="250" height="30" as="geometry">
            <mxRectangle width="250" height="30" as="alternateBounds" />
          </mxGeometry>
        </mxCell>
        <mxCell id="tA-CkoTOrNPdyP2uNprh-245" value="`dreamapp_customer`" style="shape=table;startSize=30;container=1;collapsible=1;childLayout=tableLayout;fixedRows=1;rowLines=0;fontStyle=1;align=center;resizeLast=1;" vertex="1" parent="1">
          <mxGeometry x="-360" y="70" width="280" height="360" as="geometry" />
        </mxCell>
        <mxCell id="tA-CkoTOrNPdyP2uNprh-246" value="" style="shape=tableRow;horizontal=0;startSize=0;swimlaneHead=0;swimlaneBody=0;fillColor=none;collapsible=0;dropTarget=0;points=[[0,0.5],[1,0.5]];portConstraint=eastwest;strokeColor=inherit;top=0;left=0;right=0;bottom=1;" vertex="1" parent="tA-CkoTOrNPdyP2uNprh-245">
          <mxGeometry y="30" width="280" height="30" as="geometry" />
        </mxCell>
        <mxCell id="tA-CkoTOrNPdyP2uNprh-247" value="PK" style="shape=partialRectangle;overflow=hidden;connectable=0;fillColor=none;strokeColor=inherit;top=0;left=0;bottom=0;right=0;fontStyle=1;" vertex="1" parent="tA-CkoTOrNPdyP2uNprh-246">
          <mxGeometry width="30" height="30" as="geometry">
            <mxRectangle width="30" height="30" as="alternateBounds" />
          </mxGeometry>
        </mxCell>
        <mxCell id="tA-CkoTOrNPdyP2uNprh-248" value="`id` bigint NOT NULL AUTO_INCREMENT" style="shape=partialRectangle;overflow=hidden;connectable=0;fillColor=none;align=left;strokeColor=inherit;top=0;left=0;bottom=0;right=0;spacingLeft=6;fontStyle=5;" vertex="1" parent="tA-CkoTOrNPdyP2uNprh-246">
          <mxGeometry x="30" width="250" height="30" as="geometry">
            <mxRectangle width="250" height="30" as="alternateBounds" />
          </mxGeometry>
        </mxCell>
        <mxCell id="tA-CkoTOrNPdyP2uNprh-249" value="" style="shape=tableRow;horizontal=0;startSize=0;swimlaneHead=0;swimlaneBody=0;fillColor=none;collapsible=0;dropTarget=0;points=[[0,0.5],[1,0.5]];portConstraint=eastwest;strokeColor=inherit;top=0;left=0;right=0;bottom=0;" vertex="1" parent="tA-CkoTOrNPdyP2uNprh-245">
          <mxGeometry y="60" width="280" height="30" as="geometry" />
        </mxCell>
        <mxCell id="tA-CkoTOrNPdyP2uNprh-250" value="" style="shape=partialRectangle;overflow=hidden;connectable=0;fillColor=none;strokeColor=inherit;top=0;left=0;bottom=0;right=0;" vertex="1" parent="tA-CkoTOrNPdyP2uNprh-249">
          <mxGeometry width="30" height="30" as="geometry">
            <mxRectangle width="30" height="30" as="alternateBounds" />
          </mxGeometry>
        </mxCell>
        <mxCell id="tA-CkoTOrNPdyP2uNprh-251" value="`name` varchar(50) NOT NULL" style="shape=partialRectangle;overflow=hidden;connectable=0;fillColor=none;align=left;strokeColor=inherit;top=0;left=0;bottom=0;right=0;spacingLeft=6;" vertex="1" parent="tA-CkoTOrNPdyP2uNprh-249">
          <mxGeometry x="30" width="250" height="30" as="geometry">
            <mxRectangle width="250" height="30" as="alternateBounds" />
          </mxGeometry>
        </mxCell>
        <mxCell id="tA-CkoTOrNPdyP2uNprh-252" value="" style="shape=tableRow;horizontal=0;startSize=0;swimlaneHead=0;swimlaneBody=0;fillColor=none;collapsible=0;dropTarget=0;points=[[0,0.5],[1,0.5]];portConstraint=eastwest;strokeColor=inherit;top=0;left=0;right=0;bottom=0;" vertex="1" parent="tA-CkoTOrNPdyP2uNprh-245">
          <mxGeometry y="90" width="280" height="30" as="geometry" />
        </mxCell>
        <mxCell id="tA-CkoTOrNPdyP2uNprh-253" value="" style="shape=partialRectangle;overflow=hidden;connectable=0;fillColor=none;strokeColor=inherit;top=0;left=0;bottom=0;right=0;" vertex="1" parent="tA-CkoTOrNPdyP2uNprh-252">
          <mxGeometry width="30" height="30" as="geometry">
            <mxRectangle width="30" height="30" as="alternateBounds" />
          </mxGeometry>
        </mxCell>
        <mxCell id="tA-CkoTOrNPdyP2uNprh-254" value="`email` varchar(254) NOT NULL" style="shape=partialRectangle;overflow=hidden;connectable=0;fillColor=none;align=left;strokeColor=inherit;top=0;left=0;bottom=0;right=0;spacingLeft=6;" vertex="1" parent="tA-CkoTOrNPdyP2uNprh-252">
          <mxGeometry x="30" width="250" height="30" as="geometry">
            <mxRectangle width="250" height="30" as="alternateBounds" />
          </mxGeometry>
        </mxCell>
        <mxCell id="tA-CkoTOrNPdyP2uNprh-255" value="" style="shape=tableRow;horizontal=0;startSize=0;swimlaneHead=0;swimlaneBody=0;fillColor=none;collapsible=0;dropTarget=0;points=[[0,0.5],[1,0.5]];portConstraint=eastwest;strokeColor=inherit;top=0;left=0;right=0;bottom=0;" vertex="1" parent="tA-CkoTOrNPdyP2uNprh-245">
          <mxGeometry y="120" width="280" height="30" as="geometry" />
        </mxCell>
        <mxCell id="tA-CkoTOrNPdyP2uNprh-256" value="" style="shape=partialRectangle;overflow=hidden;connectable=0;fillColor=none;strokeColor=inherit;top=0;left=0;bottom=0;right=0;" vertex="1" parent="tA-CkoTOrNPdyP2uNprh-255">
          <mxGeometry width="30" height="30" as="geometry">
            <mxRectangle width="30" height="30" as="alternateBounds" />
          </mxGeometry>
        </mxCell>
        <mxCell id="tA-CkoTOrNPdyP2uNprh-257" value="`gender` varchar(40) NOT NULL" style="shape=partialRectangle;overflow=hidden;connectable=0;fillColor=none;align=left;strokeColor=inherit;top=0;left=0;bottom=0;right=0;spacingLeft=6;" vertex="1" parent="tA-CkoTOrNPdyP2uNprh-255">
          <mxGeometry x="30" width="250" height="30" as="geometry">
            <mxRectangle width="250" height="30" as="alternateBounds" />
          </mxGeometry>
        </mxCell>
        <mxCell id="tA-CkoTOrNPdyP2uNprh-258" value="" style="shape=tableRow;horizontal=0;startSize=0;swimlaneHead=0;swimlaneBody=0;fillColor=none;collapsible=0;dropTarget=0;points=[[0,0.5],[1,0.5]];portConstraint=eastwest;strokeColor=inherit;top=0;left=0;right=0;bottom=0;" vertex="1" parent="tA-CkoTOrNPdyP2uNprh-245">
          <mxGeometry y="150" width="280" height="30" as="geometry" />
        </mxCell>
        <mxCell id="tA-CkoTOrNPdyP2uNprh-259" value="" style="shape=partialRectangle;overflow=hidden;connectable=0;fillColor=none;strokeColor=inherit;top=0;left=0;bottom=0;right=0;" vertex="1" parent="tA-CkoTOrNPdyP2uNprh-258">
          <mxGeometry width="30" height="30" as="geometry">
            <mxRectangle width="30" height="30" as="alternateBounds" />
          </mxGeometry>
        </mxCell>
        <mxCell id="tA-CkoTOrNPdyP2uNprh-260" value="`age` int NOT NULL" style="shape=partialRectangle;overflow=hidden;connectable=0;fillColor=none;align=left;strokeColor=inherit;top=0;left=0;bottom=0;right=0;spacingLeft=6;" vertex="1" parent="tA-CkoTOrNPdyP2uNprh-258">
          <mxGeometry x="30" width="250" height="30" as="geometry">
            <mxRectangle width="250" height="30" as="alternateBounds" />
          </mxGeometry>
        </mxCell>
        <mxCell id="tA-CkoTOrNPdyP2uNprh-261" value="" style="shape=tableRow;horizontal=0;startSize=0;swimlaneHead=0;swimlaneBody=0;fillColor=none;collapsible=0;dropTarget=0;points=[[0,0.5],[1,0.5]];portConstraint=eastwest;strokeColor=inherit;top=0;left=0;right=0;bottom=0;" vertex="1" parent="tA-CkoTOrNPdyP2uNprh-245">
          <mxGeometry y="180" width="280" height="30" as="geometry" />
        </mxCell>
        <mxCell id="tA-CkoTOrNPdyP2uNprh-262" value="" style="shape=partialRectangle;overflow=hidden;connectable=0;fillColor=none;strokeColor=inherit;top=0;left=0;bottom=0;right=0;" vertex="1" parent="tA-CkoTOrNPdyP2uNprh-261">
          <mxGeometry width="30" height="30" as="geometry">
            <mxRectangle width="30" height="30" as="alternateBounds" />
          </mxGeometry>
        </mxCell>
        <mxCell id="tA-CkoTOrNPdyP2uNprh-263" value="`mobile` bigint NOT NULL" style="shape=partialRectangle;overflow=hidden;connectable=0;fillColor=none;align=left;strokeColor=inherit;top=0;left=0;bottom=0;right=0;spacingLeft=6;" vertex="1" parent="tA-CkoTOrNPdyP2uNprh-261">
          <mxGeometry x="30" width="250" height="30" as="geometry">
            <mxRectangle width="250" height="30" as="alternateBounds" />
          </mxGeometry>
        </mxCell>
        <mxCell id="tA-CkoTOrNPdyP2uNprh-264" value="" style="shape=tableRow;horizontal=0;startSize=0;swimlaneHead=0;swimlaneBody=0;fillColor=none;collapsible=0;dropTarget=0;points=[[0,0.5],[1,0.5]];portConstraint=eastwest;strokeColor=inherit;top=0;left=0;right=0;bottom=0;" vertex="1" parent="tA-CkoTOrNPdyP2uNprh-245">
          <mxGeometry y="210" width="280" height="30" as="geometry" />
        </mxCell>
        <mxCell id="tA-CkoTOrNPdyP2uNprh-265" value="" style="shape=partialRectangle;overflow=hidden;connectable=0;fillColor=none;strokeColor=inherit;top=0;left=0;bottom=0;right=0;" vertex="1" parent="tA-CkoTOrNPdyP2uNprh-264">
          <mxGeometry width="30" height="30" as="geometry">
            <mxRectangle width="30" height="30" as="alternateBounds" />
          </mxGeometry>
        </mxCell>
        <mxCell id="tA-CkoTOrNPdyP2uNprh-266" value="`address` longtext NOT NULL" style="shape=partialRectangle;overflow=hidden;connectable=0;fillColor=none;align=left;strokeColor=inherit;top=0;left=0;bottom=0;right=0;spacingLeft=6;" vertex="1" parent="tA-CkoTOrNPdyP2uNprh-264">
          <mxGeometry x="30" width="250" height="30" as="geometry">
            <mxRectangle width="250" height="30" as="alternateBounds" />
          </mxGeometry>
        </mxCell>
        <mxCell id="tA-CkoTOrNPdyP2uNprh-267" value="" style="shape=tableRow;horizontal=0;startSize=0;swimlaneHead=0;swimlaneBody=0;fillColor=none;collapsible=0;dropTarget=0;points=[[0,0.5],[1,0.5]];portConstraint=eastwest;strokeColor=inherit;top=0;left=0;right=0;bottom=0;" vertex="1" parent="tA-CkoTOrNPdyP2uNprh-245">
          <mxGeometry y="240" width="280" height="30" as="geometry" />
        </mxCell>
        <mxCell id="tA-CkoTOrNPdyP2uNprh-268" value="" style="shape=partialRectangle;overflow=hidden;connectable=0;fillColor=none;strokeColor=inherit;top=0;left=0;bottom=0;right=0;" vertex="1" parent="tA-CkoTOrNPdyP2uNprh-267">
          <mxGeometry width="30" height="30" as="geometry">
            <mxRectangle width="30" height="30" as="alternateBounds" />
          </mxGeometry>
        </mxCell>
        <mxCell id="tA-CkoTOrNPdyP2uNprh-269" value="`password` varchar(70) NOT NULL" style="shape=partialRectangle;overflow=hidden;connectable=0;fillColor=none;align=left;strokeColor=inherit;top=0;left=0;bottom=0;right=0;spacingLeft=6;" vertex="1" parent="tA-CkoTOrNPdyP2uNprh-267">
          <mxGeometry x="30" width="250" height="30" as="geometry">
            <mxRectangle width="250" height="30" as="alternateBounds" />
          </mxGeometry>
        </mxCell>
        <mxCell id="tA-CkoTOrNPdyP2uNprh-270" value="" style="shape=tableRow;horizontal=0;startSize=0;swimlaneHead=0;swimlaneBody=0;fillColor=none;collapsible=0;dropTarget=0;points=[[0,0.5],[1,0.5]];portConstraint=eastwest;strokeColor=inherit;top=0;left=0;right=0;bottom=0;" vertex="1" parent="tA-CkoTOrNPdyP2uNprh-245">
          <mxGeometry y="270" width="280" height="30" as="geometry" />
        </mxCell>
        <mxCell id="tA-CkoTOrNPdyP2uNprh-271" value="" style="shape=partialRectangle;overflow=hidden;connectable=0;fillColor=none;strokeColor=inherit;top=0;left=0;bottom=0;right=0;" vertex="1" parent="tA-CkoTOrNPdyP2uNprh-270">
          <mxGeometry width="30" height="30" as="geometry">
            <mxRectangle width="30" height="30" as="alternateBounds" />
          </mxGeometry>
        </mxCell>
        <mxCell id="tA-CkoTOrNPdyP2uNprh-272" value="`status` varchar(40) NOT NULL" style="shape=partialRectangle;overflow=hidden;connectable=0;fillColor=none;align=left;strokeColor=inherit;top=0;left=0;bottom=0;right=0;spacingLeft=6;" vertex="1" parent="tA-CkoTOrNPdyP2uNprh-270">
          <mxGeometry x="30" width="250" height="30" as="geometry">
            <mxRectangle width="250" height="30" as="alternateBounds" />
          </mxGeometry>
        </mxCell>
        <mxCell id="tA-CkoTOrNPdyP2uNprh-273" value="" style="shape=tableRow;horizontal=0;startSize=0;swimlaneHead=0;swimlaneBody=0;fillColor=none;collapsible=0;dropTarget=0;points=[[0,0.5],[1,0.5]];portConstraint=eastwest;strokeColor=inherit;top=0;left=0;right=0;bottom=0;" vertex="1" parent="tA-CkoTOrNPdyP2uNprh-245">
          <mxGeometry y="300" width="280" height="30" as="geometry" />
        </mxCell>
        <mxCell id="tA-CkoTOrNPdyP2uNprh-274" value="" style="shape=partialRectangle;overflow=hidden;connectable=0;fillColor=none;strokeColor=inherit;top=0;left=0;bottom=0;right=0;" vertex="1" parent="tA-CkoTOrNPdyP2uNprh-273">
          <mxGeometry width="30" height="30" as="geometry">
            <mxRectangle width="30" height="30" as="alternateBounds" />
          </mxGeometry>
        </mxCell>
        <mxCell id="tA-CkoTOrNPdyP2uNprh-275" value="`startdate` date DEFAULT NULL" style="shape=partialRectangle;overflow=hidden;connectable=0;fillColor=none;align=left;strokeColor=inherit;top=0;left=0;bottom=0;right=0;spacingLeft=6;" vertex="1" parent="tA-CkoTOrNPdyP2uNprh-273">
          <mxGeometry x="30" width="250" height="30" as="geometry">
            <mxRectangle width="250" height="30" as="alternateBounds" />
          </mxGeometry>
        </mxCell>
        <mxCell id="tA-CkoTOrNPdyP2uNprh-276" value="" style="shape=tableRow;horizontal=0;startSize=0;swimlaneHead=0;swimlaneBody=0;fillColor=none;collapsible=0;dropTarget=0;points=[[0,0.5],[1,0.5]];portConstraint=eastwest;strokeColor=inherit;top=0;left=0;right=0;bottom=0;" vertex="1" parent="tA-CkoTOrNPdyP2uNprh-245">
          <mxGeometry y="330" width="280" height="30" as="geometry" />
        </mxCell>
        <mxCell id="tA-CkoTOrNPdyP2uNprh-277" value="" style="shape=partialRectangle;overflow=hidden;connectable=0;fillColor=none;strokeColor=inherit;top=0;left=0;bottom=0;right=0;" vertex="1" parent="tA-CkoTOrNPdyP2uNprh-276">
          <mxGeometry width="30" height="30" as="geometry">
            <mxRectangle width="30" height="30" as="alternateBounds" />
          </mxGeometry>
        </mxCell>
        <mxCell id="tA-CkoTOrNPdyP2uNprh-278" value="`enddate` date DEFAULT NULL" style="shape=partialRectangle;overflow=hidden;connectable=0;fillColor=none;align=left;strokeColor=inherit;top=0;left=0;bottom=0;right=0;spacingLeft=6;" vertex="1" parent="tA-CkoTOrNPdyP2uNprh-276">
          <mxGeometry x="30" width="250" height="30" as="geometry">
            <mxRectangle width="250" height="30" as="alternateBounds" />
          </mxGeometry>
        </mxCell>
        <mxCell id="tA-CkoTOrNPdyP2uNprh-279" value="`dreamapp_episode`" style="shape=table;startSize=30;container=1;collapsible=1;childLayout=tableLayout;fixedRows=1;rowLines=0;fontStyle=1;align=center;resizeLast=1;" vertex="1" parent="1">
          <mxGeometry x="-703" y="620" width="283" height="360" as="geometry" />
        </mxCell>
        <mxCell id="tA-CkoTOrNPdyP2uNprh-280" value="" style="shape=tableRow;horizontal=0;startSize=0;swimlaneHead=0;swimlaneBody=0;fillColor=none;collapsible=0;dropTarget=0;points=[[0,0.5],[1,0.5]];portConstraint=eastwest;strokeColor=inherit;top=0;left=0;right=0;bottom=1;" vertex="1" parent="tA-CkoTOrNPdyP2uNprh-279">
          <mxGeometry y="30" width="283" height="30" as="geometry" />
        </mxCell>
        <mxCell id="tA-CkoTOrNPdyP2uNprh-281" value="PK" style="shape=partialRectangle;overflow=hidden;connectable=0;fillColor=none;strokeColor=inherit;top=0;left=0;bottom=0;right=0;fontStyle=1;" vertex="1" parent="tA-CkoTOrNPdyP2uNprh-280">
          <mxGeometry width="30" height="30" as="geometry">
            <mxRectangle width="30" height="30" as="alternateBounds" />
          </mxGeometry>
        </mxCell>
        <mxCell id="tA-CkoTOrNPdyP2uNprh-282" value="`id` bigint NOT NULL AUTO_INCREMENT" style="shape=partialRectangle;overflow=hidden;connectable=0;fillColor=none;align=left;strokeColor=inherit;top=0;left=0;bottom=0;right=0;spacingLeft=6;fontStyle=5;" vertex="1" parent="tA-CkoTOrNPdyP2uNprh-280">
          <mxGeometry x="30" width="253" height="30" as="geometry">
            <mxRectangle width="253" height="30" as="alternateBounds" />
          </mxGeometry>
        </mxCell>
        <mxCell id="tA-CkoTOrNPdyP2uNprh-283" value="" style="shape=tableRow;horizontal=0;startSize=0;swimlaneHead=0;swimlaneBody=0;fillColor=none;collapsible=0;dropTarget=0;points=[[0,0.5],[1,0.5]];portConstraint=eastwest;strokeColor=inherit;top=0;left=0;right=0;bottom=0;" vertex="1" parent="tA-CkoTOrNPdyP2uNprh-279">
          <mxGeometry y="60" width="283" height="30" as="geometry" />
        </mxCell>
        <mxCell id="tA-CkoTOrNPdyP2uNprh-284" value="" style="shape=partialRectangle;overflow=hidden;connectable=0;fillColor=none;strokeColor=inherit;top=0;left=0;bottom=0;right=0;" vertex="1" parent="tA-CkoTOrNPdyP2uNprh-283">
          <mxGeometry width="30" height="30" as="geometry">
            <mxRectangle width="30" height="30" as="alternateBounds" />
          </mxGeometry>
        </mxCell>
        <mxCell id="tA-CkoTOrNPdyP2uNprh-285" value="`title` varchar(255) NOT NULL" style="shape=partialRectangle;overflow=hidden;connectable=0;fillColor=none;align=left;strokeColor=inherit;top=0;left=0;bottom=0;right=0;spacingLeft=6;" vertex="1" parent="tA-CkoTOrNPdyP2uNprh-283">
          <mxGeometry x="30" width="253" height="30" as="geometry">
            <mxRectangle width="253" height="30" as="alternateBounds" />
          </mxGeometry>
        </mxCell>
        <mxCell id="tA-CkoTOrNPdyP2uNprh-286" value="" style="shape=tableRow;horizontal=0;startSize=0;swimlaneHead=0;swimlaneBody=0;fillColor=none;collapsible=0;dropTarget=0;points=[[0,0.5],[1,0.5]];portConstraint=eastwest;strokeColor=inherit;top=0;left=0;right=0;bottom=0;" vertex="1" parent="tA-CkoTOrNPdyP2uNprh-279">
          <mxGeometry y="90" width="283" height="30" as="geometry" />
        </mxCell>
        <mxCell id="tA-CkoTOrNPdyP2uNprh-287" value="" style="shape=partialRectangle;overflow=hidden;connectable=0;fillColor=none;strokeColor=inherit;top=0;left=0;bottom=0;right=0;" vertex="1" parent="tA-CkoTOrNPdyP2uNprh-286">
          <mxGeometry width="30" height="30" as="geometry">
            <mxRectangle width="30" height="30" as="alternateBounds" />
          </mxGeometry>
        </mxCell>
        <mxCell id="tA-CkoTOrNPdyP2uNprh-288" value="`description` longtext NOT NULL" style="shape=partialRectangle;overflow=hidden;connectable=0;fillColor=none;align=left;strokeColor=inherit;top=0;left=0;bottom=0;right=0;spacingLeft=6;" vertex="1" parent="tA-CkoTOrNPdyP2uNprh-286">
          <mxGeometry x="30" width="253" height="30" as="geometry">
            <mxRectangle width="253" height="30" as="alternateBounds" />
          </mxGeometry>
        </mxCell>
        <mxCell id="tA-CkoTOrNPdyP2uNprh-289" value="" style="shape=tableRow;horizontal=0;startSize=0;swimlaneHead=0;swimlaneBody=0;fillColor=none;collapsible=0;dropTarget=0;points=[[0,0.5],[1,0.5]];portConstraint=eastwest;strokeColor=inherit;top=0;left=0;right=0;bottom=0;" vertex="1" parent="tA-CkoTOrNPdyP2uNprh-279">
          <mxGeometry y="120" width="283" height="30" as="geometry" />
        </mxCell>
        <mxCell id="tA-CkoTOrNPdyP2uNprh-290" value="" style="shape=partialRectangle;overflow=hidden;connectable=0;fillColor=none;strokeColor=inherit;top=0;left=0;bottom=0;right=0;" vertex="1" parent="tA-CkoTOrNPdyP2uNprh-289">
          <mxGeometry width="30" height="30" as="geometry">
            <mxRectangle width="30" height="30" as="alternateBounds" />
          </mxGeometry>
        </mxCell>
        <mxCell id="tA-CkoTOrNPdyP2uNprh-291" value="`episode_number` int unsigned NOT NULL" style="shape=partialRectangle;overflow=hidden;connectable=0;fillColor=none;align=left;strokeColor=inherit;top=0;left=0;bottom=0;right=0;spacingLeft=6;" vertex="1" parent="tA-CkoTOrNPdyP2uNprh-289">
          <mxGeometry x="30" width="253" height="30" as="geometry">
            <mxRectangle width="253" height="30" as="alternateBounds" />
          </mxGeometry>
        </mxCell>
        <mxCell id="tA-CkoTOrNPdyP2uNprh-292" value="" style="shape=tableRow;horizontal=0;startSize=0;swimlaneHead=0;swimlaneBody=0;fillColor=none;collapsible=0;dropTarget=0;points=[[0,0.5],[1,0.5]];portConstraint=eastwest;strokeColor=inherit;top=0;left=0;right=0;bottom=0;" vertex="1" parent="tA-CkoTOrNPdyP2uNprh-279">
          <mxGeometry y="150" width="283" height="30" as="geometry" />
        </mxCell>
        <mxCell id="tA-CkoTOrNPdyP2uNprh-293" value="" style="shape=partialRectangle;overflow=hidden;connectable=0;fillColor=none;strokeColor=inherit;top=0;left=0;bottom=0;right=0;" vertex="1" parent="tA-CkoTOrNPdyP2uNprh-292">
          <mxGeometry width="30" height="30" as="geometry">
            <mxRectangle width="30" height="30" as="alternateBounds" />
          </mxGeometry>
        </mxCell>
        <mxCell id="tA-CkoTOrNPdyP2uNprh-294" value="`release_date` date NOT NULL" style="shape=partialRectangle;overflow=hidden;connectable=0;fillColor=none;align=left;strokeColor=inherit;top=0;left=0;bottom=0;right=0;spacingLeft=6;" vertex="1" parent="tA-CkoTOrNPdyP2uNprh-292">
          <mxGeometry x="30" width="253" height="30" as="geometry">
            <mxRectangle width="253" height="30" as="alternateBounds" />
          </mxGeometry>
        </mxCell>
        <mxCell id="tA-CkoTOrNPdyP2uNprh-295" value="" style="shape=tableRow;horizontal=0;startSize=0;swimlaneHead=0;swimlaneBody=0;fillColor=none;collapsible=0;dropTarget=0;points=[[0,0.5],[1,0.5]];portConstraint=eastwest;strokeColor=inherit;top=0;left=0;right=0;bottom=0;" vertex="1" parent="tA-CkoTOrNPdyP2uNprh-279">
          <mxGeometry y="180" width="283" height="30" as="geometry" />
        </mxCell>
        <mxCell id="tA-CkoTOrNPdyP2uNprh-296" value="" style="shape=partialRectangle;overflow=hidden;connectable=0;fillColor=none;strokeColor=inherit;top=0;left=0;bottom=0;right=0;" vertex="1" parent="tA-CkoTOrNPdyP2uNprh-295">
          <mxGeometry width="30" height="30" as="geometry">
            <mxRectangle width="30" height="30" as="alternateBounds" />
          </mxGeometry>
        </mxCell>
        <mxCell id="tA-CkoTOrNPdyP2uNprh-297" value="`thumbnail` varchar(100) NOT NULL" style="shape=partialRectangle;overflow=hidden;connectable=0;fillColor=none;align=left;strokeColor=inherit;top=0;left=0;bottom=0;right=0;spacingLeft=6;" vertex="1" parent="tA-CkoTOrNPdyP2uNprh-295">
          <mxGeometry x="30" width="253" height="30" as="geometry">
            <mxRectangle width="253" height="30" as="alternateBounds" />
          </mxGeometry>
        </mxCell>
        <mxCell id="tA-CkoTOrNPdyP2uNprh-298" value="" style="shape=tableRow;horizontal=0;startSize=0;swimlaneHead=0;swimlaneBody=0;fillColor=none;collapsible=0;dropTarget=0;points=[[0,0.5],[1,0.5]];portConstraint=eastwest;strokeColor=inherit;top=0;left=0;right=0;bottom=0;" vertex="1" parent="tA-CkoTOrNPdyP2uNprh-279">
          <mxGeometry y="210" width="283" height="30" as="geometry" />
        </mxCell>
        <mxCell id="tA-CkoTOrNPdyP2uNprh-299" value="" style="shape=partialRectangle;overflow=hidden;connectable=0;fillColor=none;strokeColor=inherit;top=0;left=0;bottom=0;right=0;" vertex="1" parent="tA-CkoTOrNPdyP2uNprh-298">
          <mxGeometry width="30" height="30" as="geometry">
            <mxRectangle width="30" height="30" as="alternateBounds" />
          </mxGeometry>
        </mxCell>
        <mxCell id="tA-CkoTOrNPdyP2uNprh-300" value="`video` varchar(100) NOT NULL" style="shape=partialRectangle;overflow=hidden;connectable=0;fillColor=none;align=left;strokeColor=inherit;top=0;left=0;bottom=0;right=0;spacingLeft=6;" vertex="1" parent="tA-CkoTOrNPdyP2uNprh-298">
          <mxGeometry x="30" width="253" height="30" as="geometry">
            <mxRectangle width="253" height="30" as="alternateBounds" />
          </mxGeometry>
        </mxCell>
        <mxCell id="tA-CkoTOrNPdyP2uNprh-301" value="" style="shape=tableRow;horizontal=0;startSize=0;swimlaneHead=0;swimlaneBody=0;fillColor=none;collapsible=0;dropTarget=0;points=[[0,0.5],[1,0.5]];portConstraint=eastwest;strokeColor=inherit;top=0;left=0;right=0;bottom=0;" vertex="1" parent="tA-CkoTOrNPdyP2uNprh-279">
          <mxGeometry y="240" width="283" height="30" as="geometry" />
        </mxCell>
        <mxCell id="tA-CkoTOrNPdyP2uNprh-302" value="" style="shape=partialRectangle;overflow=hidden;connectable=0;fillColor=none;strokeColor=inherit;top=0;left=0;bottom=0;right=0;" vertex="1" parent="tA-CkoTOrNPdyP2uNprh-301">
          <mxGeometry width="30" height="30" as="geometry">
            <mxRectangle width="30" height="30" as="alternateBounds" />
          </mxGeometry>
        </mxCell>
        <mxCell id="tA-CkoTOrNPdyP2uNprh-303" value="`webseries_id` bigint NOT NULL" style="shape=partialRectangle;overflow=hidden;connectable=0;fillColor=none;align=left;strokeColor=inherit;top=0;left=0;bottom=0;right=0;spacingLeft=6;" vertex="1" parent="tA-CkoTOrNPdyP2uNprh-301">
          <mxGeometry x="30" width="253" height="30" as="geometry">
            <mxRectangle width="253" height="30" as="alternateBounds" />
          </mxGeometry>
        </mxCell>
        <mxCell id="tA-CkoTOrNPdyP2uNprh-304" value="" style="shape=tableRow;horizontal=0;startSize=0;swimlaneHead=0;swimlaneBody=0;fillColor=none;collapsible=0;dropTarget=0;points=[[0,0.5],[1,0.5]];portConstraint=eastwest;strokeColor=inherit;top=0;left=0;right=0;bottom=0;" vertex="1" parent="tA-CkoTOrNPdyP2uNprh-279">
          <mxGeometry y="270" width="283" height="30" as="geometry" />
        </mxCell>
        <mxCell id="tA-CkoTOrNPdyP2uNprh-305" value="" style="shape=partialRectangle;overflow=hidden;connectable=0;fillColor=none;strokeColor=inherit;top=0;left=0;bottom=0;right=0;" vertex="1" parent="tA-CkoTOrNPdyP2uNprh-304">
          <mxGeometry width="30" height="30" as="geometry">
            <mxRectangle width="30" height="30" as="alternateBounds" />
          </mxGeometry>
        </mxCell>
        <mxCell id="tA-CkoTOrNPdyP2uNprh-306" value="KEY `dreamapp_episode_webseries_id_8408e2f6_fk_dreamapp_webseries_id` (`webseries_id`)" style="shape=partialRectangle;overflow=hidden;connectable=0;fillColor=none;align=left;strokeColor=inherit;top=0;left=0;bottom=0;right=0;spacingLeft=6;" vertex="1" parent="tA-CkoTOrNPdyP2uNprh-304">
          <mxGeometry x="30" width="253" height="30" as="geometry">
            <mxRectangle width="253" height="30" as="alternateBounds" />
          </mxGeometry>
        </mxCell>
        <mxCell id="tA-CkoTOrNPdyP2uNprh-307" value="" style="shape=tableRow;horizontal=0;startSize=0;swimlaneHead=0;swimlaneBody=0;fillColor=none;collapsible=0;dropTarget=0;points=[[0,0.5],[1,0.5]];portConstraint=eastwest;strokeColor=inherit;top=0;left=0;right=0;bottom=0;" vertex="1" parent="tA-CkoTOrNPdyP2uNprh-279">
          <mxGeometry y="300" width="283" height="30" as="geometry" />
        </mxCell>
        <mxCell id="tA-CkoTOrNPdyP2uNprh-308" value="" style="shape=partialRectangle;overflow=hidden;connectable=0;fillColor=none;strokeColor=inherit;top=0;left=0;bottom=0;right=0;" vertex="1" parent="tA-CkoTOrNPdyP2uNprh-307">
          <mxGeometry width="30" height="30" as="geometry">
            <mxRectangle width="30" height="30" as="alternateBounds" />
          </mxGeometry>
        </mxCell>
        <mxCell id="tA-CkoTOrNPdyP2uNprh-309" value="CONSTRAINT `dreamapp_episode_webseries_id_8408e2f6_fk_dreamapp_webseries_id` FOREIGN KEY (`webseries_id`) REFERENCES `dreamapp_webseries` (`id`)" style="shape=partialRectangle;overflow=hidden;connectable=0;fillColor=none;align=left;strokeColor=inherit;top=0;left=0;bottom=0;right=0;spacingLeft=6;" vertex="1" parent="tA-CkoTOrNPdyP2uNprh-307">
          <mxGeometry x="30" width="253" height="30" as="geometry">
            <mxRectangle width="253" height="30" as="alternateBounds" />
          </mxGeometry>
        </mxCell>
        <mxCell id="tA-CkoTOrNPdyP2uNprh-310" value="" style="shape=tableRow;horizontal=0;startSize=0;swimlaneHead=0;swimlaneBody=0;fillColor=none;collapsible=0;dropTarget=0;points=[[0,0.5],[1,0.5]];portConstraint=eastwest;strokeColor=inherit;top=0;left=0;right=0;bottom=0;" vertex="1" parent="tA-CkoTOrNPdyP2uNprh-279">
          <mxGeometry y="330" width="283" height="30" as="geometry" />
        </mxCell>
        <mxCell id="tA-CkoTOrNPdyP2uNprh-311" value="" style="shape=partialRectangle;overflow=hidden;connectable=0;fillColor=none;strokeColor=inherit;top=0;left=0;bottom=0;right=0;" vertex="1" parent="tA-CkoTOrNPdyP2uNprh-310">
          <mxGeometry width="30" height="30" as="geometry">
            <mxRectangle width="30" height="30" as="alternateBounds" />
          </mxGeometry>
        </mxCell>
        <mxCell id="tA-CkoTOrNPdyP2uNprh-312" value="CONSTRAINT `dreamapp_episode_chk_1` CHECK ((`episode_number` &gt;= 0))" style="shape=partialRectangle;overflow=hidden;connectable=0;fillColor=none;align=left;strokeColor=inherit;top=0;left=0;bottom=0;right=0;spacingLeft=6;" vertex="1" parent="tA-CkoTOrNPdyP2uNprh-310">
          <mxGeometry x="30" width="253" height="30" as="geometry">
            <mxRectangle width="253" height="30" as="alternateBounds" />
          </mxGeometry>
        </mxCell>
        <mxCell id="tA-CkoTOrNPdyP2uNprh-313" value="`dreamapp_movie`" style="shape=table;startSize=30;container=1;collapsible=1;childLayout=tableLayout;fixedRows=1;rowLines=0;fontStyle=1;align=center;resizeLast=1;" vertex="1" parent="1">
          <mxGeometry x="-360" y="470" width="280" height="360" as="geometry" />
        </mxCell>
        <mxCell id="tA-CkoTOrNPdyP2uNprh-314" value="" style="shape=tableRow;horizontal=0;startSize=0;swimlaneHead=0;swimlaneBody=0;fillColor=none;collapsible=0;dropTarget=0;points=[[0,0.5],[1,0.5]];portConstraint=eastwest;strokeColor=inherit;top=0;left=0;right=0;bottom=1;" vertex="1" parent="tA-CkoTOrNPdyP2uNprh-313">
          <mxGeometry y="30" width="280" height="30" as="geometry" />
        </mxCell>
        <mxCell id="tA-CkoTOrNPdyP2uNprh-315" value="PK" style="shape=partialRectangle;overflow=hidden;connectable=0;fillColor=none;strokeColor=inherit;top=0;left=0;bottom=0;right=0;fontStyle=1;" vertex="1" parent="tA-CkoTOrNPdyP2uNprh-314">
          <mxGeometry width="30" height="30" as="geometry">
            <mxRectangle width="30" height="30" as="alternateBounds" />
          </mxGeometry>
        </mxCell>
        <mxCell id="tA-CkoTOrNPdyP2uNprh-316" value="`id` bigint NOT NULL AUTO_INCREMENT" style="shape=partialRectangle;overflow=hidden;connectable=0;fillColor=none;align=left;strokeColor=inherit;top=0;left=0;bottom=0;right=0;spacingLeft=6;fontStyle=5;" vertex="1" parent="tA-CkoTOrNPdyP2uNprh-314">
          <mxGeometry x="30" width="250" height="30" as="geometry">
            <mxRectangle width="250" height="30" as="alternateBounds" />
          </mxGeometry>
        </mxCell>
        <mxCell id="tA-CkoTOrNPdyP2uNprh-317" value="" style="shape=tableRow;horizontal=0;startSize=0;swimlaneHead=0;swimlaneBody=0;fillColor=none;collapsible=0;dropTarget=0;points=[[0,0.5],[1,0.5]];portConstraint=eastwest;strokeColor=inherit;top=0;left=0;right=0;bottom=0;" vertex="1" parent="tA-CkoTOrNPdyP2uNprh-313">
          <mxGeometry y="60" width="280" height="30" as="geometry" />
        </mxCell>
        <mxCell id="tA-CkoTOrNPdyP2uNprh-318" value="" style="shape=partialRectangle;overflow=hidden;connectable=0;fillColor=none;strokeColor=inherit;top=0;left=0;bottom=0;right=0;" vertex="1" parent="tA-CkoTOrNPdyP2uNprh-317">
          <mxGeometry width="30" height="30" as="geometry">
            <mxRectangle width="30" height="30" as="alternateBounds" />
          </mxGeometry>
        </mxCell>
        <mxCell id="tA-CkoTOrNPdyP2uNprh-319" value="`title` varchar(60) NOT NULL" style="shape=partialRectangle;overflow=hidden;connectable=0;fillColor=none;align=left;strokeColor=inherit;top=0;left=0;bottom=0;right=0;spacingLeft=6;" vertex="1" parent="tA-CkoTOrNPdyP2uNprh-317">
          <mxGeometry x="30" width="250" height="30" as="geometry">
            <mxRectangle width="250" height="30" as="alternateBounds" />
          </mxGeometry>
        </mxCell>
        <mxCell id="tA-CkoTOrNPdyP2uNprh-320" value="" style="shape=tableRow;horizontal=0;startSize=0;swimlaneHead=0;swimlaneBody=0;fillColor=none;collapsible=0;dropTarget=0;points=[[0,0.5],[1,0.5]];portConstraint=eastwest;strokeColor=inherit;top=0;left=0;right=0;bottom=0;" vertex="1" parent="tA-CkoTOrNPdyP2uNprh-313">
          <mxGeometry y="90" width="280" height="30" as="geometry" />
        </mxCell>
        <mxCell id="tA-CkoTOrNPdyP2uNprh-321" value="" style="shape=partialRectangle;overflow=hidden;connectable=0;fillColor=none;strokeColor=inherit;top=0;left=0;bottom=0;right=0;" vertex="1" parent="tA-CkoTOrNPdyP2uNprh-320">
          <mxGeometry width="30" height="30" as="geometry">
            <mxRectangle width="30" height="30" as="alternateBounds" />
          </mxGeometry>
        </mxCell>
        <mxCell id="tA-CkoTOrNPdyP2uNprh-322" value="`category` longtext NOT NULL" style="shape=partialRectangle;overflow=hidden;connectable=0;fillColor=none;align=left;strokeColor=inherit;top=0;left=0;bottom=0;right=0;spacingLeft=6;" vertex="1" parent="tA-CkoTOrNPdyP2uNprh-320">
          <mxGeometry x="30" width="250" height="30" as="geometry">
            <mxRectangle width="250" height="30" as="alternateBounds" />
          </mxGeometry>
        </mxCell>
        <mxCell id="tA-CkoTOrNPdyP2uNprh-323" value="" style="shape=tableRow;horizontal=0;startSize=0;swimlaneHead=0;swimlaneBody=0;fillColor=none;collapsible=0;dropTarget=0;points=[[0,0.5],[1,0.5]];portConstraint=eastwest;strokeColor=inherit;top=0;left=0;right=0;bottom=0;" vertex="1" parent="tA-CkoTOrNPdyP2uNprh-313">
          <mxGeometry y="120" width="280" height="30" as="geometry" />
        </mxCell>
        <mxCell id="tA-CkoTOrNPdyP2uNprh-324" value="" style="shape=partialRectangle;overflow=hidden;connectable=0;fillColor=none;strokeColor=inherit;top=0;left=0;bottom=0;right=0;" vertex="1" parent="tA-CkoTOrNPdyP2uNprh-323">
          <mxGeometry width="30" height="30" as="geometry">
            <mxRectangle width="30" height="30" as="alternateBounds" />
          </mxGeometry>
        </mxCell>
        <mxCell id="tA-CkoTOrNPdyP2uNprh-325" value="`cast` varchar(40) NOT NULL" style="shape=partialRectangle;overflow=hidden;connectable=0;fillColor=none;align=left;strokeColor=inherit;top=0;left=0;bottom=0;right=0;spacingLeft=6;" vertex="1" parent="tA-CkoTOrNPdyP2uNprh-323">
          <mxGeometry x="30" width="250" height="30" as="geometry">
            <mxRectangle width="250" height="30" as="alternateBounds" />
          </mxGeometry>
        </mxCell>
        <mxCell id="tA-CkoTOrNPdyP2uNprh-326" value="" style="shape=tableRow;horizontal=0;startSize=0;swimlaneHead=0;swimlaneBody=0;fillColor=none;collapsible=0;dropTarget=0;points=[[0,0.5],[1,0.5]];portConstraint=eastwest;strokeColor=inherit;top=0;left=0;right=0;bottom=0;" vertex="1" parent="tA-CkoTOrNPdyP2uNprh-313">
          <mxGeometry y="150" width="280" height="30" as="geometry" />
        </mxCell>
        <mxCell id="tA-CkoTOrNPdyP2uNprh-327" value="" style="shape=partialRectangle;overflow=hidden;connectable=0;fillColor=none;strokeColor=inherit;top=0;left=0;bottom=0;right=0;" vertex="1" parent="tA-CkoTOrNPdyP2uNprh-326">
          <mxGeometry width="30" height="30" as="geometry">
            <mxRectangle width="30" height="30" as="alternateBounds" />
          </mxGeometry>
        </mxCell>
        <mxCell id="tA-CkoTOrNPdyP2uNprh-328" value="`description` longtext NOT NULL" style="shape=partialRectangle;overflow=hidden;connectable=0;fillColor=none;align=left;strokeColor=inherit;top=0;left=0;bottom=0;right=0;spacingLeft=6;" vertex="1" parent="tA-CkoTOrNPdyP2uNprh-326">
          <mxGeometry x="30" width="250" height="30" as="geometry">
            <mxRectangle width="250" height="30" as="alternateBounds" />
          </mxGeometry>
        </mxCell>
        <mxCell id="tA-CkoTOrNPdyP2uNprh-329" value="" style="shape=tableRow;horizontal=0;startSize=0;swimlaneHead=0;swimlaneBody=0;fillColor=none;collapsible=0;dropTarget=0;points=[[0,0.5],[1,0.5]];portConstraint=eastwest;strokeColor=inherit;top=0;left=0;right=0;bottom=0;" vertex="1" parent="tA-CkoTOrNPdyP2uNprh-313">
          <mxGeometry y="180" width="280" height="30" as="geometry" />
        </mxCell>
        <mxCell id="tA-CkoTOrNPdyP2uNprh-330" value="" style="shape=partialRectangle;overflow=hidden;connectable=0;fillColor=none;strokeColor=inherit;top=0;left=0;bottom=0;right=0;" vertex="1" parent="tA-CkoTOrNPdyP2uNprh-329">
          <mxGeometry width="30" height="30" as="geometry">
            <mxRectangle width="30" height="30" as="alternateBounds" />
          </mxGeometry>
        </mxCell>
        <mxCell id="tA-CkoTOrNPdyP2uNprh-331" value="`director` varchar(60) NOT NULL" style="shape=partialRectangle;overflow=hidden;connectable=0;fillColor=none;align=left;strokeColor=inherit;top=0;left=0;bottom=0;right=0;spacingLeft=6;" vertex="1" parent="tA-CkoTOrNPdyP2uNprh-329">
          <mxGeometry x="30" width="250" height="30" as="geometry">
            <mxRectangle width="250" height="30" as="alternateBounds" />
          </mxGeometry>
        </mxCell>
        <mxCell id="tA-CkoTOrNPdyP2uNprh-332" value="" style="shape=tableRow;horizontal=0;startSize=0;swimlaneHead=0;swimlaneBody=0;fillColor=none;collapsible=0;dropTarget=0;points=[[0,0.5],[1,0.5]];portConstraint=eastwest;strokeColor=inherit;top=0;left=0;right=0;bottom=0;" vertex="1" parent="tA-CkoTOrNPdyP2uNprh-313">
          <mxGeometry y="210" width="280" height="30" as="geometry" />
        </mxCell>
        <mxCell id="tA-CkoTOrNPdyP2uNprh-333" value="" style="shape=partialRectangle;overflow=hidden;connectable=0;fillColor=none;strokeColor=inherit;top=0;left=0;bottom=0;right=0;" vertex="1" parent="tA-CkoTOrNPdyP2uNprh-332">
          <mxGeometry width="30" height="30" as="geometry">
            <mxRectangle width="30" height="30" as="alternateBounds" />
          </mxGeometry>
        </mxCell>
        <mxCell id="tA-CkoTOrNPdyP2uNprh-334" value="`duration` bigint NOT NULL" style="shape=partialRectangle;overflow=hidden;connectable=0;fillColor=none;align=left;strokeColor=inherit;top=0;left=0;bottom=0;right=0;spacingLeft=6;" vertex="1" parent="tA-CkoTOrNPdyP2uNprh-332">
          <mxGeometry x="30" width="250" height="30" as="geometry">
            <mxRectangle width="250" height="30" as="alternateBounds" />
          </mxGeometry>
        </mxCell>
        <mxCell id="tA-CkoTOrNPdyP2uNprh-335" value="" style="shape=tableRow;horizontal=0;startSize=0;swimlaneHead=0;swimlaneBody=0;fillColor=none;collapsible=0;dropTarget=0;points=[[0,0.5],[1,0.5]];portConstraint=eastwest;strokeColor=inherit;top=0;left=0;right=0;bottom=0;" vertex="1" parent="tA-CkoTOrNPdyP2uNprh-313">
          <mxGeometry y="240" width="280" height="30" as="geometry" />
        </mxCell>
        <mxCell id="tA-CkoTOrNPdyP2uNprh-336" value="" style="shape=partialRectangle;overflow=hidden;connectable=0;fillColor=none;strokeColor=inherit;top=0;left=0;bottom=0;right=0;" vertex="1" parent="tA-CkoTOrNPdyP2uNprh-335">
          <mxGeometry width="30" height="30" as="geometry">
            <mxRectangle width="30" height="30" as="alternateBounds" />
          </mxGeometry>
        </mxCell>
        <mxCell id="tA-CkoTOrNPdyP2uNprh-337" value="`release_date` date NOT NULL" style="shape=partialRectangle;overflow=hidden;connectable=0;fillColor=none;align=left;strokeColor=inherit;top=0;left=0;bottom=0;right=0;spacingLeft=6;" vertex="1" parent="tA-CkoTOrNPdyP2uNprh-335">
          <mxGeometry x="30" width="250" height="30" as="geometry">
            <mxRectangle width="250" height="30" as="alternateBounds" />
          </mxGeometry>
        </mxCell>
        <mxCell id="tA-CkoTOrNPdyP2uNprh-338" value="" style="shape=tableRow;horizontal=0;startSize=0;swimlaneHead=0;swimlaneBody=0;fillColor=none;collapsible=0;dropTarget=0;points=[[0,0.5],[1,0.5]];portConstraint=eastwest;strokeColor=inherit;top=0;left=0;right=0;bottom=0;" vertex="1" parent="tA-CkoTOrNPdyP2uNprh-313">
          <mxGeometry y="270" width="280" height="30" as="geometry" />
        </mxCell>
        <mxCell id="tA-CkoTOrNPdyP2uNprh-339" value="" style="shape=partialRectangle;overflow=hidden;connectable=0;fillColor=none;strokeColor=inherit;top=0;left=0;bottom=0;right=0;" vertex="1" parent="tA-CkoTOrNPdyP2uNprh-338">
          <mxGeometry width="30" height="30" as="geometry">
            <mxRectangle width="30" height="30" as="alternateBounds" />
          </mxGeometry>
        </mxCell>
        <mxCell id="tA-CkoTOrNPdyP2uNprh-340" value="`language` varchar(60) NOT NULL" style="shape=partialRectangle;overflow=hidden;connectable=0;fillColor=none;align=left;strokeColor=inherit;top=0;left=0;bottom=0;right=0;spacingLeft=6;" vertex="1" parent="tA-CkoTOrNPdyP2uNprh-338">
          <mxGeometry x="30" width="250" height="30" as="geometry">
            <mxRectangle width="250" height="30" as="alternateBounds" />
          </mxGeometry>
        </mxCell>
        <mxCell id="tA-CkoTOrNPdyP2uNprh-341" value="" style="shape=tableRow;horizontal=0;startSize=0;swimlaneHead=0;swimlaneBody=0;fillColor=none;collapsible=0;dropTarget=0;points=[[0,0.5],[1,0.5]];portConstraint=eastwest;strokeColor=inherit;top=0;left=0;right=0;bottom=0;" vertex="1" parent="tA-CkoTOrNPdyP2uNprh-313">
          <mxGeometry y="300" width="280" height="30" as="geometry" />
        </mxCell>
        <mxCell id="tA-CkoTOrNPdyP2uNprh-342" value="" style="shape=partialRectangle;overflow=hidden;connectable=0;fillColor=none;strokeColor=inherit;top=0;left=0;bottom=0;right=0;" vertex="1" parent="tA-CkoTOrNPdyP2uNprh-341">
          <mxGeometry width="30" height="30" as="geometry">
            <mxRectangle width="30" height="30" as="alternateBounds" />
          </mxGeometry>
        </mxCell>
        <mxCell id="tA-CkoTOrNPdyP2uNprh-343" value="`thumbnail` varchar(100) NOT NULL" style="shape=partialRectangle;overflow=hidden;connectable=0;fillColor=none;align=left;strokeColor=inherit;top=0;left=0;bottom=0;right=0;spacingLeft=6;" vertex="1" parent="tA-CkoTOrNPdyP2uNprh-341">
          <mxGeometry x="30" width="250" height="30" as="geometry">
            <mxRectangle width="250" height="30" as="alternateBounds" />
          </mxGeometry>
        </mxCell>
        <mxCell id="tA-CkoTOrNPdyP2uNprh-344" value="" style="shape=tableRow;horizontal=0;startSize=0;swimlaneHead=0;swimlaneBody=0;fillColor=none;collapsible=0;dropTarget=0;points=[[0,0.5],[1,0.5]];portConstraint=eastwest;strokeColor=inherit;top=0;left=0;right=0;bottom=0;" vertex="1" parent="tA-CkoTOrNPdyP2uNprh-313">
          <mxGeometry y="330" width="280" height="30" as="geometry" />
        </mxCell>
        <mxCell id="tA-CkoTOrNPdyP2uNprh-345" value="" style="shape=partialRectangle;overflow=hidden;connectable=0;fillColor=none;strokeColor=inherit;top=0;left=0;bottom=0;right=0;" vertex="1" parent="tA-CkoTOrNPdyP2uNprh-344">
          <mxGeometry width="30" height="30" as="geometry">
            <mxRectangle width="30" height="30" as="alternateBounds" />
          </mxGeometry>
        </mxCell>
        <mxCell id="tA-CkoTOrNPdyP2uNprh-346" value="`movie_video` varchar(100) NOT NULL" style="shape=partialRectangle;overflow=hidden;connectable=0;fillColor=none;align=left;strokeColor=inherit;top=0;left=0;bottom=0;right=0;spacingLeft=6;" vertex="1" parent="tA-CkoTOrNPdyP2uNprh-344">
          <mxGeometry x="30" width="250" height="30" as="geometry">
            <mxRectangle width="250" height="30" as="alternateBounds" />
          </mxGeometry>
        </mxCell>
        <mxCell id="tA-CkoTOrNPdyP2uNprh-347" value="`dreamapp_movie_review`" style="shape=table;startSize=30;container=1;collapsible=1;childLayout=tableLayout;fixedRows=1;rowLines=0;fontStyle=1;align=center;resizeLast=1;" vertex="1" parent="1">
          <mxGeometry x="-20" y="70" width="280" height="210" as="geometry" />
        </mxCell>
        <mxCell id="tA-CkoTOrNPdyP2uNprh-348" value="" style="shape=tableRow;horizontal=0;startSize=0;swimlaneHead=0;swimlaneBody=0;fillColor=none;collapsible=0;dropTarget=0;points=[[0,0.5],[1,0.5]];portConstraint=eastwest;strokeColor=inherit;top=0;left=0;right=0;bottom=1;" vertex="1" parent="tA-CkoTOrNPdyP2uNprh-347">
          <mxGeometry y="30" width="280" height="30" as="geometry" />
        </mxCell>
        <mxCell id="tA-CkoTOrNPdyP2uNprh-349" value="PK" style="shape=partialRectangle;overflow=hidden;connectable=0;fillColor=none;strokeColor=inherit;top=0;left=0;bottom=0;right=0;fontStyle=1;" vertex="1" parent="tA-CkoTOrNPdyP2uNprh-348">
          <mxGeometry width="30" height="30" as="geometry">
            <mxRectangle width="30" height="30" as="alternateBounds" />
          </mxGeometry>
        </mxCell>
        <mxCell id="tA-CkoTOrNPdyP2uNprh-350" value="`id` bigint NOT NULL AUTO_INCREMENT" style="shape=partialRectangle;overflow=hidden;connectable=0;fillColor=none;align=left;strokeColor=inherit;top=0;left=0;bottom=0;right=0;spacingLeft=6;fontStyle=5;" vertex="1" parent="tA-CkoTOrNPdyP2uNprh-348">
          <mxGeometry x="30" width="250" height="30" as="geometry">
            <mxRectangle width="250" height="30" as="alternateBounds" />
          </mxGeometry>
        </mxCell>
        <mxCell id="tA-CkoTOrNPdyP2uNprh-351" value="" style="shape=tableRow;horizontal=0;startSize=0;swimlaneHead=0;swimlaneBody=0;fillColor=none;collapsible=0;dropTarget=0;points=[[0,0.5],[1,0.5]];portConstraint=eastwest;strokeColor=inherit;top=0;left=0;right=0;bottom=0;" vertex="1" parent="tA-CkoTOrNPdyP2uNprh-347">
          <mxGeometry y="60" width="280" height="30" as="geometry" />
        </mxCell>
        <mxCell id="tA-CkoTOrNPdyP2uNprh-352" value="" style="shape=partialRectangle;overflow=hidden;connectable=0;fillColor=none;strokeColor=inherit;top=0;left=0;bottom=0;right=0;" vertex="1" parent="tA-CkoTOrNPdyP2uNprh-351">
          <mxGeometry width="30" height="30" as="geometry">
            <mxRectangle width="30" height="30" as="alternateBounds" />
          </mxGeometry>
        </mxCell>
        <mxCell id="tA-CkoTOrNPdyP2uNprh-353" value="`title` varchar(400) NOT NULL" style="shape=partialRectangle;overflow=hidden;connectable=0;fillColor=none;align=left;strokeColor=inherit;top=0;left=0;bottom=0;right=0;spacingLeft=6;" vertex="1" parent="tA-CkoTOrNPdyP2uNprh-351">
          <mxGeometry x="30" width="250" height="30" as="geometry">
            <mxRectangle width="250" height="30" as="alternateBounds" />
          </mxGeometry>
        </mxCell>
        <mxCell id="tA-CkoTOrNPdyP2uNprh-354" value="" style="shape=tableRow;horizontal=0;startSize=0;swimlaneHead=0;swimlaneBody=0;fillColor=none;collapsible=0;dropTarget=0;points=[[0,0.5],[1,0.5]];portConstraint=eastwest;strokeColor=inherit;top=0;left=0;right=0;bottom=0;" vertex="1" parent="tA-CkoTOrNPdyP2uNprh-347">
          <mxGeometry y="90" width="280" height="30" as="geometry" />
        </mxCell>
        <mxCell id="tA-CkoTOrNPdyP2uNprh-355" value="" style="shape=partialRectangle;overflow=hidden;connectable=0;fillColor=none;strokeColor=inherit;top=0;left=0;bottom=0;right=0;" vertex="1" parent="tA-CkoTOrNPdyP2uNprh-354">
          <mxGeometry width="30" height="30" as="geometry">
            <mxRectangle width="30" height="30" as="alternateBounds" />
          </mxGeometry>
        </mxCell>
        <mxCell id="tA-CkoTOrNPdyP2uNprh-356" value="`customer_email` varchar(254) NOT NULL" style="shape=partialRectangle;overflow=hidden;connectable=0;fillColor=none;align=left;strokeColor=inherit;top=0;left=0;bottom=0;right=0;spacingLeft=6;" vertex="1" parent="tA-CkoTOrNPdyP2uNprh-354">
          <mxGeometry x="30" width="250" height="30" as="geometry">
            <mxRectangle width="250" height="30" as="alternateBounds" />
          </mxGeometry>
        </mxCell>
        <mxCell id="tA-CkoTOrNPdyP2uNprh-357" value="" style="shape=tableRow;horizontal=0;startSize=0;swimlaneHead=0;swimlaneBody=0;fillColor=none;collapsible=0;dropTarget=0;points=[[0,0.5],[1,0.5]];portConstraint=eastwest;strokeColor=inherit;top=0;left=0;right=0;bottom=0;" vertex="1" parent="tA-CkoTOrNPdyP2uNprh-347">
          <mxGeometry y="120" width="280" height="30" as="geometry" />
        </mxCell>
        <mxCell id="tA-CkoTOrNPdyP2uNprh-358" value="" style="shape=partialRectangle;overflow=hidden;connectable=0;fillColor=none;strokeColor=inherit;top=0;left=0;bottom=0;right=0;" vertex="1" parent="tA-CkoTOrNPdyP2uNprh-357">
          <mxGeometry width="30" height="30" as="geometry">
            <mxRectangle width="30" height="30" as="alternateBounds" />
          </mxGeometry>
        </mxCell>
        <mxCell id="tA-CkoTOrNPdyP2uNprh-359" value="`date` datetime(6) NOT NULL" style="shape=partialRectangle;overflow=hidden;connectable=0;fillColor=none;align=left;strokeColor=inherit;top=0;left=0;bottom=0;right=0;spacingLeft=6;" vertex="1" parent="tA-CkoTOrNPdyP2uNprh-357">
          <mxGeometry x="30" width="250" height="30" as="geometry">
            <mxRectangle width="250" height="30" as="alternateBounds" />
          </mxGeometry>
        </mxCell>
        <mxCell id="tA-CkoTOrNPdyP2uNprh-360" value="" style="shape=tableRow;horizontal=0;startSize=0;swimlaneHead=0;swimlaneBody=0;fillColor=none;collapsible=0;dropTarget=0;points=[[0,0.5],[1,0.5]];portConstraint=eastwest;strokeColor=inherit;top=0;left=0;right=0;bottom=0;" vertex="1" parent="tA-CkoTOrNPdyP2uNprh-347">
          <mxGeometry y="150" width="280" height="30" as="geometry" />
        </mxCell>
        <mxCell id="tA-CkoTOrNPdyP2uNprh-361" value="" style="shape=partialRectangle;overflow=hidden;connectable=0;fillColor=none;strokeColor=inherit;top=0;left=0;bottom=0;right=0;" vertex="1" parent="tA-CkoTOrNPdyP2uNprh-360">
          <mxGeometry width="30" height="30" as="geometry">
            <mxRectangle width="30" height="30" as="alternateBounds" />
          </mxGeometry>
        </mxCell>
        <mxCell id="tA-CkoTOrNPdyP2uNprh-362" value="`review` varchar(150) NOT NULL" style="shape=partialRectangle;overflow=hidden;connectable=0;fillColor=none;align=left;strokeColor=inherit;top=0;left=0;bottom=0;right=0;spacingLeft=6;" vertex="1" parent="tA-CkoTOrNPdyP2uNprh-360">
          <mxGeometry x="30" width="250" height="30" as="geometry">
            <mxRectangle width="250" height="30" as="alternateBounds" />
          </mxGeometry>
        </mxCell>
        <mxCell id="tA-CkoTOrNPdyP2uNprh-363" value="" style="shape=tableRow;horizontal=0;startSize=0;swimlaneHead=0;swimlaneBody=0;fillColor=none;collapsible=0;dropTarget=0;points=[[0,0.5],[1,0.5]];portConstraint=eastwest;strokeColor=inherit;top=0;left=0;right=0;bottom=0;" vertex="1" parent="tA-CkoTOrNPdyP2uNprh-347">
          <mxGeometry y="180" width="280" height="30" as="geometry" />
        </mxCell>
        <mxCell id="tA-CkoTOrNPdyP2uNprh-364" value="" style="shape=partialRectangle;overflow=hidden;connectable=0;fillColor=none;strokeColor=inherit;top=0;left=0;bottom=0;right=0;" vertex="1" parent="tA-CkoTOrNPdyP2uNprh-363">
          <mxGeometry width="30" height="30" as="geometry">
            <mxRectangle width="30" height="30" as="alternateBounds" />
          </mxGeometry>
        </mxCell>
        <mxCell id="tA-CkoTOrNPdyP2uNprh-365" value="`rating` varchar(200) NOT NULL" style="shape=partialRectangle;overflow=hidden;connectable=0;fillColor=none;align=left;strokeColor=inherit;top=0;left=0;bottom=0;right=0;spacingLeft=6;" vertex="1" parent="tA-CkoTOrNPdyP2uNprh-363">
          <mxGeometry x="30" width="250" height="30" as="geometry">
            <mxRectangle width="250" height="30" as="alternateBounds" />
          </mxGeometry>
        </mxCell>
        <mxCell id="tA-CkoTOrNPdyP2uNprh-366" value="`dreamapp_notification`" style="shape=table;startSize=30;container=1;collapsible=1;childLayout=tableLayout;fixedRows=1;rowLines=0;fontStyle=1;align=center;resizeLast=1;" vertex="1" parent="1">
          <mxGeometry x="-20" y="320" width="280" height="180" as="geometry" />
        </mxCell>
        <mxCell id="tA-CkoTOrNPdyP2uNprh-367" value="" style="shape=tableRow;horizontal=0;startSize=0;swimlaneHead=0;swimlaneBody=0;fillColor=none;collapsible=0;dropTarget=0;points=[[0,0.5],[1,0.5]];portConstraint=eastwest;strokeColor=inherit;top=0;left=0;right=0;bottom=1;" vertex="1" parent="tA-CkoTOrNPdyP2uNprh-366">
          <mxGeometry y="30" width="280" height="30" as="geometry" />
        </mxCell>
        <mxCell id="tA-CkoTOrNPdyP2uNprh-368" value="PK" style="shape=partialRectangle;overflow=hidden;connectable=0;fillColor=none;strokeColor=inherit;top=0;left=0;bottom=0;right=0;fontStyle=1;" vertex="1" parent="tA-CkoTOrNPdyP2uNprh-367">
          <mxGeometry width="30" height="30" as="geometry">
            <mxRectangle width="30" height="30" as="alternateBounds" />
          </mxGeometry>
        </mxCell>
        <mxCell id="tA-CkoTOrNPdyP2uNprh-369" value="`id` bigint NOT NULL AUTO_INCREMENT" style="shape=partialRectangle;overflow=hidden;connectable=0;fillColor=none;align=left;strokeColor=inherit;top=0;left=0;bottom=0;right=0;spacingLeft=6;fontStyle=5;" vertex="1" parent="tA-CkoTOrNPdyP2uNprh-367">
          <mxGeometry x="30" width="250" height="30" as="geometry">
            <mxRectangle width="250" height="30" as="alternateBounds" />
          </mxGeometry>
        </mxCell>
        <mxCell id="tA-CkoTOrNPdyP2uNprh-370" value="" style="shape=tableRow;horizontal=0;startSize=0;swimlaneHead=0;swimlaneBody=0;fillColor=none;collapsible=0;dropTarget=0;points=[[0,0.5],[1,0.5]];portConstraint=eastwest;strokeColor=inherit;top=0;left=0;right=0;bottom=0;" vertex="1" parent="tA-CkoTOrNPdyP2uNprh-366">
          <mxGeometry y="60" width="280" height="30" as="geometry" />
        </mxCell>
        <mxCell id="tA-CkoTOrNPdyP2uNprh-371" value="" style="shape=partialRectangle;overflow=hidden;connectable=0;fillColor=none;strokeColor=inherit;top=0;left=0;bottom=0;right=0;" vertex="1" parent="tA-CkoTOrNPdyP2uNprh-370">
          <mxGeometry width="30" height="30" as="geometry">
            <mxRectangle width="30" height="30" as="alternateBounds" />
          </mxGeometry>
        </mxCell>
        <mxCell id="tA-CkoTOrNPdyP2uNprh-372" value="`email` varchar(254) NOT NULL" style="shape=partialRectangle;overflow=hidden;connectable=0;fillColor=none;align=left;strokeColor=inherit;top=0;left=0;bottom=0;right=0;spacingLeft=6;" vertex="1" parent="tA-CkoTOrNPdyP2uNprh-370">
          <mxGeometry x="30" width="250" height="30" as="geometry">
            <mxRectangle width="250" height="30" as="alternateBounds" />
          </mxGeometry>
        </mxCell>
        <mxCell id="tA-CkoTOrNPdyP2uNprh-373" value="" style="shape=tableRow;horizontal=0;startSize=0;swimlaneHead=0;swimlaneBody=0;fillColor=none;collapsible=0;dropTarget=0;points=[[0,0.5],[1,0.5]];portConstraint=eastwest;strokeColor=inherit;top=0;left=0;right=0;bottom=0;" vertex="1" parent="tA-CkoTOrNPdyP2uNprh-366">
          <mxGeometry y="90" width="280" height="30" as="geometry" />
        </mxCell>
        <mxCell id="tA-CkoTOrNPdyP2uNprh-374" value="" style="shape=partialRectangle;overflow=hidden;connectable=0;fillColor=none;strokeColor=inherit;top=0;left=0;bottom=0;right=0;" vertex="1" parent="tA-CkoTOrNPdyP2uNprh-373">
          <mxGeometry width="30" height="30" as="geometry">
            <mxRectangle width="30" height="30" as="alternateBounds" />
          </mxGeometry>
        </mxCell>
        <mxCell id="tA-CkoTOrNPdyP2uNprh-375" value="`title` varchar(70) NOT NULL" style="shape=partialRectangle;overflow=hidden;connectable=0;fillColor=none;align=left;strokeColor=inherit;top=0;left=0;bottom=0;right=0;spacingLeft=6;" vertex="1" parent="tA-CkoTOrNPdyP2uNprh-373">
          <mxGeometry x="30" width="250" height="30" as="geometry">
            <mxRectangle width="250" height="30" as="alternateBounds" />
          </mxGeometry>
        </mxCell>
        <mxCell id="tA-CkoTOrNPdyP2uNprh-376" value="" style="shape=tableRow;horizontal=0;startSize=0;swimlaneHead=0;swimlaneBody=0;fillColor=none;collapsible=0;dropTarget=0;points=[[0,0.5],[1,0.5]];portConstraint=eastwest;strokeColor=inherit;top=0;left=0;right=0;bottom=0;" vertex="1" parent="tA-CkoTOrNPdyP2uNprh-366">
          <mxGeometry y="120" width="280" height="30" as="geometry" />
        </mxCell>
        <mxCell id="tA-CkoTOrNPdyP2uNprh-377" value="" style="shape=partialRectangle;overflow=hidden;connectable=0;fillColor=none;strokeColor=inherit;top=0;left=0;bottom=0;right=0;" vertex="1" parent="tA-CkoTOrNPdyP2uNprh-376">
          <mxGeometry width="30" height="30" as="geometry">
            <mxRectangle width="30" height="30" as="alternateBounds" />
          </mxGeometry>
        </mxCell>
        <mxCell id="tA-CkoTOrNPdyP2uNprh-378" value="`description` longtext NOT NULL" style="shape=partialRectangle;overflow=hidden;connectable=0;fillColor=none;align=left;strokeColor=inherit;top=0;left=0;bottom=0;right=0;spacingLeft=6;" vertex="1" parent="tA-CkoTOrNPdyP2uNprh-376">
          <mxGeometry x="30" width="250" height="30" as="geometry">
            <mxRectangle width="250" height="30" as="alternateBounds" />
          </mxGeometry>
        </mxCell>
        <mxCell id="tA-CkoTOrNPdyP2uNprh-379" value="" style="shape=tableRow;horizontal=0;startSize=0;swimlaneHead=0;swimlaneBody=0;fillColor=none;collapsible=0;dropTarget=0;points=[[0,0.5],[1,0.5]];portConstraint=eastwest;strokeColor=inherit;top=0;left=0;right=0;bottom=0;" vertex="1" parent="tA-CkoTOrNPdyP2uNprh-366">
          <mxGeometry y="150" width="280" height="30" as="geometry" />
        </mxCell>
        <mxCell id="tA-CkoTOrNPdyP2uNprh-380" value="" style="shape=partialRectangle;overflow=hidden;connectable=0;fillColor=none;strokeColor=inherit;top=0;left=0;bottom=0;right=0;" vertex="1" parent="tA-CkoTOrNPdyP2uNprh-379">
          <mxGeometry width="30" height="30" as="geometry">
            <mxRectangle width="30" height="30" as="alternateBounds" />
          </mxGeometry>
        </mxCell>
        <mxCell id="tA-CkoTOrNPdyP2uNprh-381" value="`date_time` datetime(6) NOT NULL" style="shape=partialRectangle;overflow=hidden;connectable=0;fillColor=none;align=left;strokeColor=inherit;top=0;left=0;bottom=0;right=0;spacingLeft=6;" vertex="1" parent="tA-CkoTOrNPdyP2uNprh-379">
          <mxGeometry x="30" width="250" height="30" as="geometry">
            <mxRectangle width="250" height="30" as="alternateBounds" />
          </mxGeometry>
        </mxCell>
        <mxCell id="tA-CkoTOrNPdyP2uNprh-382" value="`dreamapp_serial_review`" style="shape=table;startSize=30;container=1;collapsible=1;childLayout=tableLayout;fixedRows=1;rowLines=0;fontStyle=1;align=center;resizeLast=1;" vertex="1" parent="1">
          <mxGeometry x="-20" y="540" width="280" height="240" as="geometry" />
        </mxCell>
        <mxCell id="tA-CkoTOrNPdyP2uNprh-383" value="" style="shape=tableRow;horizontal=0;startSize=0;swimlaneHead=0;swimlaneBody=0;fillColor=none;collapsible=0;dropTarget=0;points=[[0,0.5],[1,0.5]];portConstraint=eastwest;strokeColor=inherit;top=0;left=0;right=0;bottom=1;" vertex="1" parent="tA-CkoTOrNPdyP2uNprh-382">
          <mxGeometry y="30" width="280" height="30" as="geometry" />
        </mxCell>
        <mxCell id="tA-CkoTOrNPdyP2uNprh-384" value="PK" style="shape=partialRectangle;overflow=hidden;connectable=0;fillColor=none;strokeColor=inherit;top=0;left=0;bottom=0;right=0;fontStyle=1;" vertex="1" parent="tA-CkoTOrNPdyP2uNprh-383">
          <mxGeometry width="30" height="30" as="geometry">
            <mxRectangle width="30" height="30" as="alternateBounds" />
          </mxGeometry>
        </mxCell>
        <mxCell id="tA-CkoTOrNPdyP2uNprh-385" value="`id` bigint NOT NULL AUTO_INCREMENT" style="shape=partialRectangle;overflow=hidden;connectable=0;fillColor=none;align=left;strokeColor=inherit;top=0;left=0;bottom=0;right=0;spacingLeft=6;fontStyle=5;" vertex="1" parent="tA-CkoTOrNPdyP2uNprh-383">
          <mxGeometry x="30" width="250" height="30" as="geometry">
            <mxRectangle width="250" height="30" as="alternateBounds" />
          </mxGeometry>
        </mxCell>
        <mxCell id="tA-CkoTOrNPdyP2uNprh-386" value="" style="shape=tableRow;horizontal=0;startSize=0;swimlaneHead=0;swimlaneBody=0;fillColor=none;collapsible=0;dropTarget=0;points=[[0,0.5],[1,0.5]];portConstraint=eastwest;strokeColor=inherit;top=0;left=0;right=0;bottom=0;" vertex="1" parent="tA-CkoTOrNPdyP2uNprh-382">
          <mxGeometry y="60" width="280" height="30" as="geometry" />
        </mxCell>
        <mxCell id="tA-CkoTOrNPdyP2uNprh-387" value="" style="shape=partialRectangle;overflow=hidden;connectable=0;fillColor=none;strokeColor=inherit;top=0;left=0;bottom=0;right=0;" vertex="1" parent="tA-CkoTOrNPdyP2uNprh-386">
          <mxGeometry width="30" height="30" as="geometry">
            <mxRectangle width="30" height="30" as="alternateBounds" />
          </mxGeometry>
        </mxCell>
        <mxCell id="tA-CkoTOrNPdyP2uNprh-388" value="`title` varchar(400) NOT NULL" style="shape=partialRectangle;overflow=hidden;connectable=0;fillColor=none;align=left;strokeColor=inherit;top=0;left=0;bottom=0;right=0;spacingLeft=6;" vertex="1" parent="tA-CkoTOrNPdyP2uNprh-386">
          <mxGeometry x="30" width="250" height="30" as="geometry">
            <mxRectangle width="250" height="30" as="alternateBounds" />
          </mxGeometry>
        </mxCell>
        <mxCell id="tA-CkoTOrNPdyP2uNprh-389" value="" style="shape=tableRow;horizontal=0;startSize=0;swimlaneHead=0;swimlaneBody=0;fillColor=none;collapsible=0;dropTarget=0;points=[[0,0.5],[1,0.5]];portConstraint=eastwest;strokeColor=inherit;top=0;left=0;right=0;bottom=0;" vertex="1" parent="tA-CkoTOrNPdyP2uNprh-382">
          <mxGeometry y="90" width="280" height="30" as="geometry" />
        </mxCell>
        <mxCell id="tA-CkoTOrNPdyP2uNprh-390" value="" style="shape=partialRectangle;overflow=hidden;connectable=0;fillColor=none;strokeColor=inherit;top=0;left=0;bottom=0;right=0;" vertex="1" parent="tA-CkoTOrNPdyP2uNprh-389">
          <mxGeometry width="30" height="30" as="geometry">
            <mxRectangle width="30" height="30" as="alternateBounds" />
          </mxGeometry>
        </mxCell>
        <mxCell id="tA-CkoTOrNPdyP2uNprh-391" value="`customer_email` varchar(254) NOT NULL" style="shape=partialRectangle;overflow=hidden;connectable=0;fillColor=none;align=left;strokeColor=inherit;top=0;left=0;bottom=0;right=0;spacingLeft=6;" vertex="1" parent="tA-CkoTOrNPdyP2uNprh-389">
          <mxGeometry x="30" width="250" height="30" as="geometry">
            <mxRectangle width="250" height="30" as="alternateBounds" />
          </mxGeometry>
        </mxCell>
        <mxCell id="tA-CkoTOrNPdyP2uNprh-392" value="" style="shape=tableRow;horizontal=0;startSize=0;swimlaneHead=0;swimlaneBody=0;fillColor=none;collapsible=0;dropTarget=0;points=[[0,0.5],[1,0.5]];portConstraint=eastwest;strokeColor=inherit;top=0;left=0;right=0;bottom=0;" vertex="1" parent="tA-CkoTOrNPdyP2uNprh-382">
          <mxGeometry y="120" width="280" height="30" as="geometry" />
        </mxCell>
        <mxCell id="tA-CkoTOrNPdyP2uNprh-393" value="" style="shape=partialRectangle;overflow=hidden;connectable=0;fillColor=none;strokeColor=inherit;top=0;left=0;bottom=0;right=0;" vertex="1" parent="tA-CkoTOrNPdyP2uNprh-392">
          <mxGeometry width="30" height="30" as="geometry">
            <mxRectangle width="30" height="30" as="alternateBounds" />
          </mxGeometry>
        </mxCell>
        <mxCell id="tA-CkoTOrNPdyP2uNprh-394" value="`date` datetime(6) NOT NULL" style="shape=partialRectangle;overflow=hidden;connectable=0;fillColor=none;align=left;strokeColor=inherit;top=0;left=0;bottom=0;right=0;spacingLeft=6;" vertex="1" parent="tA-CkoTOrNPdyP2uNprh-392">
          <mxGeometry x="30" width="250" height="30" as="geometry">
            <mxRectangle width="250" height="30" as="alternateBounds" />
          </mxGeometry>
        </mxCell>
        <mxCell id="tA-CkoTOrNPdyP2uNprh-395" value="" style="shape=tableRow;horizontal=0;startSize=0;swimlaneHead=0;swimlaneBody=0;fillColor=none;collapsible=0;dropTarget=0;points=[[0,0.5],[1,0.5]];portConstraint=eastwest;strokeColor=inherit;top=0;left=0;right=0;bottom=0;" vertex="1" parent="tA-CkoTOrNPdyP2uNprh-382">
          <mxGeometry y="150" width="280" height="30" as="geometry" />
        </mxCell>
        <mxCell id="tA-CkoTOrNPdyP2uNprh-396" value="" style="shape=partialRectangle;overflow=hidden;connectable=0;fillColor=none;strokeColor=inherit;top=0;left=0;bottom=0;right=0;" vertex="1" parent="tA-CkoTOrNPdyP2uNprh-395">
          <mxGeometry width="30" height="30" as="geometry">
            <mxRectangle width="30" height="30" as="alternateBounds" />
          </mxGeometry>
        </mxCell>
        <mxCell id="tA-CkoTOrNPdyP2uNprh-397" value="`review` varchar(150) NOT NULL" style="shape=partialRectangle;overflow=hidden;connectable=0;fillColor=none;align=left;strokeColor=inherit;top=0;left=0;bottom=0;right=0;spacingLeft=6;" vertex="1" parent="tA-CkoTOrNPdyP2uNprh-395">
          <mxGeometry x="30" width="250" height="30" as="geometry">
            <mxRectangle width="250" height="30" as="alternateBounds" />
          </mxGeometry>
        </mxCell>
        <mxCell id="tA-CkoTOrNPdyP2uNprh-398" value="" style="shape=tableRow;horizontal=0;startSize=0;swimlaneHead=0;swimlaneBody=0;fillColor=none;collapsible=0;dropTarget=0;points=[[0,0.5],[1,0.5]];portConstraint=eastwest;strokeColor=inherit;top=0;left=0;right=0;bottom=0;" vertex="1" parent="tA-CkoTOrNPdyP2uNprh-382">
          <mxGeometry y="180" width="280" height="30" as="geometry" />
        </mxCell>
        <mxCell id="tA-CkoTOrNPdyP2uNprh-399" value="" style="shape=partialRectangle;overflow=hidden;connectable=0;fillColor=none;strokeColor=inherit;top=0;left=0;bottom=0;right=0;" vertex="1" parent="tA-CkoTOrNPdyP2uNprh-398">
          <mxGeometry width="30" height="30" as="geometry">
            <mxRectangle width="30" height="30" as="alternateBounds" />
          </mxGeometry>
        </mxCell>
        <mxCell id="tA-CkoTOrNPdyP2uNprh-400" value="`rating` varchar(200) NOT NULL" style="shape=partialRectangle;overflow=hidden;connectable=0;fillColor=none;align=left;strokeColor=inherit;top=0;left=0;bottom=0;right=0;spacingLeft=6;" vertex="1" parent="tA-CkoTOrNPdyP2uNprh-398">
          <mxGeometry x="30" width="250" height="30" as="geometry">
            <mxRectangle width="250" height="30" as="alternateBounds" />
          </mxGeometry>
        </mxCell>
        <mxCell id="tA-CkoTOrNPdyP2uNprh-574" value="" style="shape=tableRow;horizontal=0;startSize=0;swimlaneHead=0;swimlaneBody=0;fillColor=none;collapsible=0;dropTarget=0;points=[[0,0.5],[1,0.5]];portConstraint=eastwest;strokeColor=inherit;top=0;left=0;right=0;bottom=0;" vertex="1" parent="tA-CkoTOrNPdyP2uNprh-382">
          <mxGeometry y="210" width="280" height="30" as="geometry" />
        </mxCell>
        <mxCell id="tA-CkoTOrNPdyP2uNprh-575" value="" style="shape=partialRectangle;overflow=hidden;connectable=0;fillColor=none;strokeColor=inherit;top=0;left=0;bottom=0;right=0;" vertex="1" parent="tA-CkoTOrNPdyP2uNprh-574">
          <mxGeometry width="30" height="30" as="geometry">
            <mxRectangle width="30" height="30" as="alternateBounds" />
          </mxGeometry>
        </mxCell>
        <mxCell id="tA-CkoTOrNPdyP2uNprh-576" value="`rating` varchar(200) NOT NULL" style="shape=partialRectangle;overflow=hidden;connectable=0;fillColor=none;align=left;strokeColor=inherit;top=0;left=0;bottom=0;right=0;spacingLeft=6;" vertex="1" parent="tA-CkoTOrNPdyP2uNprh-574">
          <mxGeometry x="30" width="250" height="30" as="geometry">
            <mxRectangle width="250" height="30" as="alternateBounds" />
          </mxGeometry>
        </mxCell>
        <mxCell id="tA-CkoTOrNPdyP2uNprh-401" value="`dreamapp_serials`" style="shape=table;startSize=30;container=1;collapsible=1;childLayout=tableLayout;fixedRows=1;rowLines=0;fontStyle=1;align=center;resizeLast=1;" vertex="1" parent="1">
          <mxGeometry x="-20" y="800" width="280" height="300" as="geometry" />
        </mxCell>
        <mxCell id="tA-CkoTOrNPdyP2uNprh-402" value="" style="shape=tableRow;horizontal=0;startSize=0;swimlaneHead=0;swimlaneBody=0;fillColor=none;collapsible=0;dropTarget=0;points=[[0,0.5],[1,0.5]];portConstraint=eastwest;strokeColor=inherit;top=0;left=0;right=0;bottom=1;" vertex="1" parent="tA-CkoTOrNPdyP2uNprh-401">
          <mxGeometry y="30" width="280" height="30" as="geometry" />
        </mxCell>
        <mxCell id="tA-CkoTOrNPdyP2uNprh-403" value="PK" style="shape=partialRectangle;overflow=hidden;connectable=0;fillColor=none;strokeColor=inherit;top=0;left=0;bottom=0;right=0;fontStyle=1;" vertex="1" parent="tA-CkoTOrNPdyP2uNprh-402">
          <mxGeometry width="30" height="30" as="geometry">
            <mxRectangle width="30" height="30" as="alternateBounds" />
          </mxGeometry>
        </mxCell>
        <mxCell id="tA-CkoTOrNPdyP2uNprh-404" value="`id` bigint NOT NULL AUTO_INCREMENT" style="shape=partialRectangle;overflow=hidden;connectable=0;fillColor=none;align=left;strokeColor=inherit;top=0;left=0;bottom=0;right=0;spacingLeft=6;fontStyle=5;" vertex="1" parent="tA-CkoTOrNPdyP2uNprh-402">
          <mxGeometry x="30" width="250" height="30" as="geometry">
            <mxRectangle width="250" height="30" as="alternateBounds" />
          </mxGeometry>
        </mxCell>
        <mxCell id="tA-CkoTOrNPdyP2uNprh-405" value="" style="shape=tableRow;horizontal=0;startSize=0;swimlaneHead=0;swimlaneBody=0;fillColor=none;collapsible=0;dropTarget=0;points=[[0,0.5],[1,0.5]];portConstraint=eastwest;strokeColor=inherit;top=0;left=0;right=0;bottom=0;" vertex="1" parent="tA-CkoTOrNPdyP2uNprh-401">
          <mxGeometry y="60" width="280" height="30" as="geometry" />
        </mxCell>
        <mxCell id="tA-CkoTOrNPdyP2uNprh-406" value="" style="shape=partialRectangle;overflow=hidden;connectable=0;fillColor=none;strokeColor=inherit;top=0;left=0;bottom=0;right=0;" vertex="1" parent="tA-CkoTOrNPdyP2uNprh-405">
          <mxGeometry width="30" height="30" as="geometry">
            <mxRectangle width="30" height="30" as="alternateBounds" />
          </mxGeometry>
        </mxCell>
        <mxCell id="tA-CkoTOrNPdyP2uNprh-407" value="`title` varchar(50) NOT NULL" style="shape=partialRectangle;overflow=hidden;connectable=0;fillColor=none;align=left;strokeColor=inherit;top=0;left=0;bottom=0;right=0;spacingLeft=6;" vertex="1" parent="tA-CkoTOrNPdyP2uNprh-405">
          <mxGeometry x="30" width="250" height="30" as="geometry">
            <mxRectangle width="250" height="30" as="alternateBounds" />
          </mxGeometry>
        </mxCell>
        <mxCell id="tA-CkoTOrNPdyP2uNprh-408" value="" style="shape=tableRow;horizontal=0;startSize=0;swimlaneHead=0;swimlaneBody=0;fillColor=none;collapsible=0;dropTarget=0;points=[[0,0.5],[1,0.5]];portConstraint=eastwest;strokeColor=inherit;top=0;left=0;right=0;bottom=0;" vertex="1" parent="tA-CkoTOrNPdyP2uNprh-401">
          <mxGeometry y="90" width="280" height="30" as="geometry" />
        </mxCell>
        <mxCell id="tA-CkoTOrNPdyP2uNprh-409" value="" style="shape=partialRectangle;overflow=hidden;connectable=0;fillColor=none;strokeColor=inherit;top=0;left=0;bottom=0;right=0;" vertex="1" parent="tA-CkoTOrNPdyP2uNprh-408">
          <mxGeometry width="30" height="30" as="geometry">
            <mxRectangle width="30" height="30" as="alternateBounds" />
          </mxGeometry>
        </mxCell>
        <mxCell id="tA-CkoTOrNPdyP2uNprh-410" value="`cast` varchar(50) NOT NULL" style="shape=partialRectangle;overflow=hidden;connectable=0;fillColor=none;align=left;strokeColor=inherit;top=0;left=0;bottom=0;right=0;spacingLeft=6;" vertex="1" parent="tA-CkoTOrNPdyP2uNprh-408">
          <mxGeometry x="30" width="250" height="30" as="geometry">
            <mxRectangle width="250" height="30" as="alternateBounds" />
          </mxGeometry>
        </mxCell>
        <mxCell id="tA-CkoTOrNPdyP2uNprh-411" value="" style="shape=tableRow;horizontal=0;startSize=0;swimlaneHead=0;swimlaneBody=0;fillColor=none;collapsible=0;dropTarget=0;points=[[0,0.5],[1,0.5]];portConstraint=eastwest;strokeColor=inherit;top=0;left=0;right=0;bottom=0;" vertex="1" parent="tA-CkoTOrNPdyP2uNprh-401">
          <mxGeometry y="120" width="280" height="30" as="geometry" />
        </mxCell>
        <mxCell id="tA-CkoTOrNPdyP2uNprh-412" value="" style="shape=partialRectangle;overflow=hidden;connectable=0;fillColor=none;strokeColor=inherit;top=0;left=0;bottom=0;right=0;" vertex="1" parent="tA-CkoTOrNPdyP2uNprh-411">
          <mxGeometry width="30" height="30" as="geometry">
            <mxRectangle width="30" height="30" as="alternateBounds" />
          </mxGeometry>
        </mxCell>
        <mxCell id="tA-CkoTOrNPdyP2uNprh-413" value="`duration` bigint NOT NULL" style="shape=partialRectangle;overflow=hidden;connectable=0;fillColor=none;align=left;strokeColor=inherit;top=0;left=0;bottom=0;right=0;spacingLeft=6;" vertex="1" parent="tA-CkoTOrNPdyP2uNprh-411">
          <mxGeometry x="30" width="250" height="30" as="geometry">
            <mxRectangle width="250" height="30" as="alternateBounds" />
          </mxGeometry>
        </mxCell>
        <mxCell id="tA-CkoTOrNPdyP2uNprh-414" value="" style="shape=tableRow;horizontal=0;startSize=0;swimlaneHead=0;swimlaneBody=0;fillColor=none;collapsible=0;dropTarget=0;points=[[0,0.5],[1,0.5]];portConstraint=eastwest;strokeColor=inherit;top=0;left=0;right=0;bottom=0;" vertex="1" parent="tA-CkoTOrNPdyP2uNprh-401">
          <mxGeometry y="150" width="280" height="30" as="geometry" />
        </mxCell>
        <mxCell id="tA-CkoTOrNPdyP2uNprh-415" value="" style="shape=partialRectangle;overflow=hidden;connectable=0;fillColor=none;strokeColor=inherit;top=0;left=0;bottom=0;right=0;" vertex="1" parent="tA-CkoTOrNPdyP2uNprh-414">
          <mxGeometry width="30" height="30" as="geometry">
            <mxRectangle width="30" height="30" as="alternateBounds" />
          </mxGeometry>
        </mxCell>
        <mxCell id="tA-CkoTOrNPdyP2uNprh-416" value="`description` longtext NOT NULL" style="shape=partialRectangle;overflow=hidden;connectable=0;fillColor=none;align=left;strokeColor=inherit;top=0;left=0;bottom=0;right=0;spacingLeft=6;" vertex="1" parent="tA-CkoTOrNPdyP2uNprh-414">
          <mxGeometry x="30" width="250" height="30" as="geometry">
            <mxRectangle width="250" height="30" as="alternateBounds" />
          </mxGeometry>
        </mxCell>
        <mxCell id="tA-CkoTOrNPdyP2uNprh-417" value="" style="shape=tableRow;horizontal=0;startSize=0;swimlaneHead=0;swimlaneBody=0;fillColor=none;collapsible=0;dropTarget=0;points=[[0,0.5],[1,0.5]];portConstraint=eastwest;strokeColor=inherit;top=0;left=0;right=0;bottom=0;" vertex="1" parent="tA-CkoTOrNPdyP2uNprh-401">
          <mxGeometry y="180" width="280" height="30" as="geometry" />
        </mxCell>
        <mxCell id="tA-CkoTOrNPdyP2uNprh-418" value="" style="shape=partialRectangle;overflow=hidden;connectable=0;fillColor=none;strokeColor=inherit;top=0;left=0;bottom=0;right=0;" vertex="1" parent="tA-CkoTOrNPdyP2uNprh-417">
          <mxGeometry width="30" height="30" as="geometry">
            <mxRectangle width="30" height="30" as="alternateBounds" />
          </mxGeometry>
        </mxCell>
        <mxCell id="tA-CkoTOrNPdyP2uNprh-419" value="`director` varchar(50) NOT NULL" style="shape=partialRectangle;overflow=hidden;connectable=0;fillColor=none;align=left;strokeColor=inherit;top=0;left=0;bottom=0;right=0;spacingLeft=6;" vertex="1" parent="tA-CkoTOrNPdyP2uNprh-417">
          <mxGeometry x="30" width="250" height="30" as="geometry">
            <mxRectangle width="250" height="30" as="alternateBounds" />
          </mxGeometry>
        </mxCell>
        <mxCell id="tA-CkoTOrNPdyP2uNprh-420" value="" style="shape=tableRow;horizontal=0;startSize=0;swimlaneHead=0;swimlaneBody=0;fillColor=none;collapsible=0;dropTarget=0;points=[[0,0.5],[1,0.5]];portConstraint=eastwest;strokeColor=inherit;top=0;left=0;right=0;bottom=0;" vertex="1" parent="tA-CkoTOrNPdyP2uNprh-401">
          <mxGeometry y="210" width="280" height="30" as="geometry" />
        </mxCell>
        <mxCell id="tA-CkoTOrNPdyP2uNprh-421" value="" style="shape=partialRectangle;overflow=hidden;connectable=0;fillColor=none;strokeColor=inherit;top=0;left=0;bottom=0;right=0;" vertex="1" parent="tA-CkoTOrNPdyP2uNprh-420">
          <mxGeometry width="30" height="30" as="geometry">
            <mxRectangle width="30" height="30" as="alternateBounds" />
          </mxGeometry>
        </mxCell>
        <mxCell id="tA-CkoTOrNPdyP2uNprh-422" value="`language` varchar(50) NOT NULL" style="shape=partialRectangle;overflow=hidden;connectable=0;fillColor=none;align=left;strokeColor=inherit;top=0;left=0;bottom=0;right=0;spacingLeft=6;" vertex="1" parent="tA-CkoTOrNPdyP2uNprh-420">
          <mxGeometry x="30" width="250" height="30" as="geometry">
            <mxRectangle width="250" height="30" as="alternateBounds" />
          </mxGeometry>
        </mxCell>
        <mxCell id="tA-CkoTOrNPdyP2uNprh-423" value="" style="shape=tableRow;horizontal=0;startSize=0;swimlaneHead=0;swimlaneBody=0;fillColor=none;collapsible=0;dropTarget=0;points=[[0,0.5],[1,0.5]];portConstraint=eastwest;strokeColor=inherit;top=0;left=0;right=0;bottom=0;" vertex="1" parent="tA-CkoTOrNPdyP2uNprh-401">
          <mxGeometry y="240" width="280" height="30" as="geometry" />
        </mxCell>
        <mxCell id="tA-CkoTOrNPdyP2uNprh-424" value="" style="shape=partialRectangle;overflow=hidden;connectable=0;fillColor=none;strokeColor=inherit;top=0;left=0;bottom=0;right=0;" vertex="1" parent="tA-CkoTOrNPdyP2uNprh-423">
          <mxGeometry width="30" height="30" as="geometry">
            <mxRectangle width="30" height="30" as="alternateBounds" />
          </mxGeometry>
        </mxCell>
        <mxCell id="tA-CkoTOrNPdyP2uNprh-425" value="`thumbnail` varchar(100) NOT NULL" style="shape=partialRectangle;overflow=hidden;connectable=0;fillColor=none;align=left;strokeColor=inherit;top=0;left=0;bottom=0;right=0;spacingLeft=6;" vertex="1" parent="tA-CkoTOrNPdyP2uNprh-423">
          <mxGeometry x="30" width="250" height="30" as="geometry">
            <mxRectangle width="250" height="30" as="alternateBounds" />
          </mxGeometry>
        </mxCell>
        <mxCell id="tA-CkoTOrNPdyP2uNprh-426" value="" style="shape=tableRow;horizontal=0;startSize=0;swimlaneHead=0;swimlaneBody=0;fillColor=none;collapsible=0;dropTarget=0;points=[[0,0.5],[1,0.5]];portConstraint=eastwest;strokeColor=inherit;top=0;left=0;right=0;bottom=0;" vertex="1" parent="tA-CkoTOrNPdyP2uNprh-401">
          <mxGeometry y="270" width="280" height="30" as="geometry" />
        </mxCell>
        <mxCell id="tA-CkoTOrNPdyP2uNprh-427" value="" style="shape=partialRectangle;overflow=hidden;connectable=0;fillColor=none;strokeColor=inherit;top=0;left=0;bottom=0;right=0;" vertex="1" parent="tA-CkoTOrNPdyP2uNprh-426">
          <mxGeometry width="30" height="30" as="geometry">
            <mxRectangle width="30" height="30" as="alternateBounds" />
          </mxGeometry>
        </mxCell>
        <mxCell id="tA-CkoTOrNPdyP2uNprh-428" value="`episode` varchar(100) NOT NULL" style="shape=partialRectangle;overflow=hidden;connectable=0;fillColor=none;align=left;strokeColor=inherit;top=0;left=0;bottom=0;right=0;spacingLeft=6;" vertex="1" parent="tA-CkoTOrNPdyP2uNprh-426">
          <mxGeometry x="30" width="250" height="30" as="geometry">
            <mxRectangle width="250" height="30" as="alternateBounds" />
          </mxGeometry>
        </mxCell>
        <mxCell id="tA-CkoTOrNPdyP2uNprh-429" value="`dreamapp_serials_episodes`" style="shape=table;startSize=30;container=1;collapsible=1;childLayout=tableLayout;fixedRows=1;rowLines=0;fontStyle=1;align=center;resizeLast=1;" vertex="1" parent="1">
          <mxGeometry x="-360" y="880" width="280" height="270" as="geometry" />
        </mxCell>
        <mxCell id="tA-CkoTOrNPdyP2uNprh-430" value="" style="shape=tableRow;horizontal=0;startSize=0;swimlaneHead=0;swimlaneBody=0;fillColor=none;collapsible=0;dropTarget=0;points=[[0,0.5],[1,0.5]];portConstraint=eastwest;strokeColor=inherit;top=0;left=0;right=0;bottom=1;" vertex="1" parent="tA-CkoTOrNPdyP2uNprh-429">
          <mxGeometry y="30" width="280" height="30" as="geometry" />
        </mxCell>
        <mxCell id="tA-CkoTOrNPdyP2uNprh-431" value="PK" style="shape=partialRectangle;overflow=hidden;connectable=0;fillColor=none;strokeColor=inherit;top=0;left=0;bottom=0;right=0;fontStyle=1;" vertex="1" parent="tA-CkoTOrNPdyP2uNprh-430">
          <mxGeometry width="30" height="30" as="geometry">
            <mxRectangle width="30" height="30" as="alternateBounds" />
          </mxGeometry>
        </mxCell>
        <mxCell id="tA-CkoTOrNPdyP2uNprh-432" value="`id` bigint NOT NULL AUTO_INCREMENT" style="shape=partialRectangle;overflow=hidden;connectable=0;fillColor=none;align=left;strokeColor=inherit;top=0;left=0;bottom=0;right=0;spacingLeft=6;fontStyle=5;" vertex="1" parent="tA-CkoTOrNPdyP2uNprh-430">
          <mxGeometry x="30" width="250" height="30" as="geometry">
            <mxRectangle width="250" height="30" as="alternateBounds" />
          </mxGeometry>
        </mxCell>
        <mxCell id="tA-CkoTOrNPdyP2uNprh-433" value="" style="shape=tableRow;horizontal=0;startSize=0;swimlaneHead=0;swimlaneBody=0;fillColor=none;collapsible=0;dropTarget=0;points=[[0,0.5],[1,0.5]];portConstraint=eastwest;strokeColor=inherit;top=0;left=0;right=0;bottom=0;" vertex="1" parent="tA-CkoTOrNPdyP2uNprh-429">
          <mxGeometry y="60" width="280" height="30" as="geometry" />
        </mxCell>
        <mxCell id="tA-CkoTOrNPdyP2uNprh-434" value="" style="shape=partialRectangle;overflow=hidden;connectable=0;fillColor=none;strokeColor=inherit;top=0;left=0;bottom=0;right=0;" vertex="1" parent="tA-CkoTOrNPdyP2uNprh-433">
          <mxGeometry width="30" height="30" as="geometry">
            <mxRectangle width="30" height="30" as="alternateBounds" />
          </mxGeometry>
        </mxCell>
        <mxCell id="tA-CkoTOrNPdyP2uNprh-435" value="`title` varchar(200) NOT NULL" style="shape=partialRectangle;overflow=hidden;connectable=0;fillColor=none;align=left;strokeColor=inherit;top=0;left=0;bottom=0;right=0;spacingLeft=6;" vertex="1" parent="tA-CkoTOrNPdyP2uNprh-433">
          <mxGeometry x="30" width="250" height="30" as="geometry">
            <mxRectangle width="250" height="30" as="alternateBounds" />
          </mxGeometry>
        </mxCell>
        <mxCell id="tA-CkoTOrNPdyP2uNprh-436" value="" style="shape=tableRow;horizontal=0;startSize=0;swimlaneHead=0;swimlaneBody=0;fillColor=none;collapsible=0;dropTarget=0;points=[[0,0.5],[1,0.5]];portConstraint=eastwest;strokeColor=inherit;top=0;left=0;right=0;bottom=0;" vertex="1" parent="tA-CkoTOrNPdyP2uNprh-429">
          <mxGeometry y="90" width="280" height="30" as="geometry" />
        </mxCell>
        <mxCell id="tA-CkoTOrNPdyP2uNprh-437" value="" style="shape=partialRectangle;overflow=hidden;connectable=0;fillColor=none;strokeColor=inherit;top=0;left=0;bottom=0;right=0;" vertex="1" parent="tA-CkoTOrNPdyP2uNprh-436">
          <mxGeometry width="30" height="30" as="geometry">
            <mxRectangle width="30" height="30" as="alternateBounds" />
          </mxGeometry>
        </mxCell>
        <mxCell id="tA-CkoTOrNPdyP2uNprh-438" value="`video` varchar(100) NOT NULL" style="shape=partialRectangle;overflow=hidden;connectable=0;fillColor=none;align=left;strokeColor=inherit;top=0;left=0;bottom=0;right=0;spacingLeft=6;" vertex="1" parent="tA-CkoTOrNPdyP2uNprh-436">
          <mxGeometry x="30" width="250" height="30" as="geometry">
            <mxRectangle width="250" height="30" as="alternateBounds" />
          </mxGeometry>
        </mxCell>
        <mxCell id="tA-CkoTOrNPdyP2uNprh-439" value="" style="shape=tableRow;horizontal=0;startSize=0;swimlaneHead=0;swimlaneBody=0;fillColor=none;collapsible=0;dropTarget=0;points=[[0,0.5],[1,0.5]];portConstraint=eastwest;strokeColor=inherit;top=0;left=0;right=0;bottom=0;" vertex="1" parent="tA-CkoTOrNPdyP2uNprh-429">
          <mxGeometry y="120" width="280" height="30" as="geometry" />
        </mxCell>
        <mxCell id="tA-CkoTOrNPdyP2uNprh-440" value="" style="shape=partialRectangle;overflow=hidden;connectable=0;fillColor=none;strokeColor=inherit;top=0;left=0;bottom=0;right=0;" vertex="1" parent="tA-CkoTOrNPdyP2uNprh-439">
          <mxGeometry width="30" height="30" as="geometry">
            <mxRectangle width="30" height="30" as="alternateBounds" />
          </mxGeometry>
        </mxCell>
        <mxCell id="tA-CkoTOrNPdyP2uNprh-441" value="`description` longtext NOT NULL" style="shape=partialRectangle;overflow=hidden;connectable=0;fillColor=none;align=left;strokeColor=inherit;top=0;left=0;bottom=0;right=0;spacingLeft=6;" vertex="1" parent="tA-CkoTOrNPdyP2uNprh-439">
          <mxGeometry x="30" width="250" height="30" as="geometry">
            <mxRectangle width="250" height="30" as="alternateBounds" />
          </mxGeometry>
        </mxCell>
        <mxCell id="tA-CkoTOrNPdyP2uNprh-442" value="" style="shape=tableRow;horizontal=0;startSize=0;swimlaneHead=0;swimlaneBody=0;fillColor=none;collapsible=0;dropTarget=0;points=[[0,0.5],[1,0.5]];portConstraint=eastwest;strokeColor=inherit;top=0;left=0;right=0;bottom=0;" vertex="1" parent="tA-CkoTOrNPdyP2uNprh-429">
          <mxGeometry y="150" width="280" height="30" as="geometry" />
        </mxCell>
        <mxCell id="tA-CkoTOrNPdyP2uNprh-443" value="" style="shape=partialRectangle;overflow=hidden;connectable=0;fillColor=none;strokeColor=inherit;top=0;left=0;bottom=0;right=0;" vertex="1" parent="tA-CkoTOrNPdyP2uNprh-442">
          <mxGeometry width="30" height="30" as="geometry">
            <mxRectangle width="30" height="30" as="alternateBounds" />
          </mxGeometry>
        </mxCell>
        <mxCell id="tA-CkoTOrNPdyP2uNprh-444" value="`episode_number` int NOT NULL" style="shape=partialRectangle;overflow=hidden;connectable=0;fillColor=none;align=left;strokeColor=inherit;top=0;left=0;bottom=0;right=0;spacingLeft=6;" vertex="1" parent="tA-CkoTOrNPdyP2uNprh-442">
          <mxGeometry x="30" width="250" height="30" as="geometry">
            <mxRectangle width="250" height="30" as="alternateBounds" />
          </mxGeometry>
        </mxCell>
        <mxCell id="tA-CkoTOrNPdyP2uNprh-445" value="" style="shape=tableRow;horizontal=0;startSize=0;swimlaneHead=0;swimlaneBody=0;fillColor=none;collapsible=0;dropTarget=0;points=[[0,0.5],[1,0.5]];portConstraint=eastwest;strokeColor=inherit;top=0;left=0;right=0;bottom=0;" vertex="1" parent="tA-CkoTOrNPdyP2uNprh-429">
          <mxGeometry y="180" width="280" height="30" as="geometry" />
        </mxCell>
        <mxCell id="tA-CkoTOrNPdyP2uNprh-446" value="" style="shape=partialRectangle;overflow=hidden;connectable=0;fillColor=none;strokeColor=inherit;top=0;left=0;bottom=0;right=0;" vertex="1" parent="tA-CkoTOrNPdyP2uNprh-445">
          <mxGeometry width="30" height="30" as="geometry">
            <mxRectangle width="30" height="30" as="alternateBounds" />
          </mxGeometry>
        </mxCell>
        <mxCell id="tA-CkoTOrNPdyP2uNprh-447" value="`serial_id` bigint NOT NULL" style="shape=partialRectangle;overflow=hidden;connectable=0;fillColor=none;align=left;strokeColor=inherit;top=0;left=0;bottom=0;right=0;spacingLeft=6;" vertex="1" parent="tA-CkoTOrNPdyP2uNprh-445">
          <mxGeometry x="30" width="250" height="30" as="geometry">
            <mxRectangle width="250" height="30" as="alternateBounds" />
          </mxGeometry>
        </mxCell>
        <mxCell id="tA-CkoTOrNPdyP2uNprh-448" value="" style="shape=tableRow;horizontal=0;startSize=0;swimlaneHead=0;swimlaneBody=0;fillColor=none;collapsible=0;dropTarget=0;points=[[0,0.5],[1,0.5]];portConstraint=eastwest;strokeColor=inherit;top=0;left=0;right=0;bottom=0;" vertex="1" parent="tA-CkoTOrNPdyP2uNprh-429">
          <mxGeometry y="210" width="280" height="30" as="geometry" />
        </mxCell>
        <mxCell id="tA-CkoTOrNPdyP2uNprh-449" value="" style="shape=partialRectangle;overflow=hidden;connectable=0;fillColor=none;strokeColor=inherit;top=0;left=0;bottom=0;right=0;" vertex="1" parent="tA-CkoTOrNPdyP2uNprh-448">
          <mxGeometry width="30" height="30" as="geometry">
            <mxRectangle width="30" height="30" as="alternateBounds" />
          </mxGeometry>
        </mxCell>
        <mxCell id="tA-CkoTOrNPdyP2uNprh-450" value="KEY `dreamapp_serials_epi_serial_id_38f4404d_fk_dreamapp_` (`serial_id`)" style="shape=partialRectangle;overflow=hidden;connectable=0;fillColor=none;align=left;strokeColor=inherit;top=0;left=0;bottom=0;right=0;spacingLeft=6;" vertex="1" parent="tA-CkoTOrNPdyP2uNprh-448">
          <mxGeometry x="30" width="250" height="30" as="geometry">
            <mxRectangle width="250" height="30" as="alternateBounds" />
          </mxGeometry>
        </mxCell>
        <mxCell id="tA-CkoTOrNPdyP2uNprh-451" value="" style="shape=tableRow;horizontal=0;startSize=0;swimlaneHead=0;swimlaneBody=0;fillColor=none;collapsible=0;dropTarget=0;points=[[0,0.5],[1,0.5]];portConstraint=eastwest;strokeColor=inherit;top=0;left=0;right=0;bottom=0;" vertex="1" parent="tA-CkoTOrNPdyP2uNprh-429">
          <mxGeometry y="240" width="280" height="30" as="geometry" />
        </mxCell>
        <mxCell id="tA-CkoTOrNPdyP2uNprh-452" value="" style="shape=partialRectangle;overflow=hidden;connectable=0;fillColor=none;strokeColor=inherit;top=0;left=0;bottom=0;right=0;" vertex="1" parent="tA-CkoTOrNPdyP2uNprh-451">
          <mxGeometry width="30" height="30" as="geometry">
            <mxRectangle width="30" height="30" as="alternateBounds" />
          </mxGeometry>
        </mxCell>
        <mxCell id="tA-CkoTOrNPdyP2uNprh-453" value="CONSTRAINT `dreamapp_serials_epi_serial_id_38f4404d_fk_dreamapp_` FOREIGN KEY (`serial_id`) REFERENCES `dreamapp_serials` (`id`)" style="shape=partialRectangle;overflow=hidden;connectable=0;fillColor=none;align=left;strokeColor=inherit;top=0;left=0;bottom=0;right=0;spacingLeft=6;" vertex="1" parent="tA-CkoTOrNPdyP2uNprh-451">
          <mxGeometry x="30" width="250" height="30" as="geometry">
            <mxRectangle width="250" height="30" as="alternateBounds" />
          </mxGeometry>
        </mxCell>
        <mxCell id="tA-CkoTOrNPdyP2uNprh-454" value="`dreamapp_subscribers`" style="shape=table;startSize=30;container=1;collapsible=1;childLayout=tableLayout;fixedRows=1;rowLines=0;fontStyle=1;align=center;resizeLast=1;" vertex="1" parent="1">
          <mxGeometry x="-701.5" y="1030" width="280" height="360" as="geometry" />
        </mxCell>
        <mxCell id="tA-CkoTOrNPdyP2uNprh-455" value="" style="shape=tableRow;horizontal=0;startSize=0;swimlaneHead=0;swimlaneBody=0;fillColor=none;collapsible=0;dropTarget=0;points=[[0,0.5],[1,0.5]];portConstraint=eastwest;strokeColor=inherit;top=0;left=0;right=0;bottom=1;" vertex="1" parent="tA-CkoTOrNPdyP2uNprh-454">
          <mxGeometry y="30" width="280" height="30" as="geometry" />
        </mxCell>
        <mxCell id="tA-CkoTOrNPdyP2uNprh-456" value="PK" style="shape=partialRectangle;overflow=hidden;connectable=0;fillColor=none;strokeColor=inherit;top=0;left=0;bottom=0;right=0;fontStyle=1;" vertex="1" parent="tA-CkoTOrNPdyP2uNprh-455">
          <mxGeometry width="30" height="30" as="geometry">
            <mxRectangle width="30" height="30" as="alternateBounds" />
          </mxGeometry>
        </mxCell>
        <mxCell id="tA-CkoTOrNPdyP2uNprh-457" value="`id` bigint NOT NULL AUTO_INCREMENT" style="shape=partialRectangle;overflow=hidden;connectable=0;fillColor=none;align=left;strokeColor=inherit;top=0;left=0;bottom=0;right=0;spacingLeft=6;fontStyle=5;" vertex="1" parent="tA-CkoTOrNPdyP2uNprh-455">
          <mxGeometry x="30" width="250" height="30" as="geometry">
            <mxRectangle width="250" height="30" as="alternateBounds" />
          </mxGeometry>
        </mxCell>
        <mxCell id="tA-CkoTOrNPdyP2uNprh-458" value="" style="shape=tableRow;horizontal=0;startSize=0;swimlaneHead=0;swimlaneBody=0;fillColor=none;collapsible=0;dropTarget=0;points=[[0,0.5],[1,0.5]];portConstraint=eastwest;strokeColor=inherit;top=0;left=0;right=0;bottom=0;" vertex="1" parent="tA-CkoTOrNPdyP2uNprh-454">
          <mxGeometry y="60" width="280" height="30" as="geometry" />
        </mxCell>
        <mxCell id="tA-CkoTOrNPdyP2uNprh-459" value="" style="shape=partialRectangle;overflow=hidden;connectable=0;fillColor=none;strokeColor=inherit;top=0;left=0;bottom=0;right=0;" vertex="1" parent="tA-CkoTOrNPdyP2uNprh-458">
          <mxGeometry width="30" height="30" as="geometry">
            <mxRectangle width="30" height="30" as="alternateBounds" />
          </mxGeometry>
        </mxCell>
        <mxCell id="tA-CkoTOrNPdyP2uNprh-460" value="`customer_email` varchar(254) NOT NULL" style="shape=partialRectangle;overflow=hidden;connectable=0;fillColor=none;align=left;strokeColor=inherit;top=0;left=0;bottom=0;right=0;spacingLeft=6;" vertex="1" parent="tA-CkoTOrNPdyP2uNprh-458">
          <mxGeometry x="30" width="250" height="30" as="geometry">
            <mxRectangle width="250" height="30" as="alternateBounds" />
          </mxGeometry>
        </mxCell>
        <mxCell id="tA-CkoTOrNPdyP2uNprh-461" value="" style="shape=tableRow;horizontal=0;startSize=0;swimlaneHead=0;swimlaneBody=0;fillColor=none;collapsible=0;dropTarget=0;points=[[0,0.5],[1,0.5]];portConstraint=eastwest;strokeColor=inherit;top=0;left=0;right=0;bottom=0;" vertex="1" parent="tA-CkoTOrNPdyP2uNprh-454">
          <mxGeometry y="90" width="280" height="30" as="geometry" />
        </mxCell>
        <mxCell id="tA-CkoTOrNPdyP2uNprh-462" value="" style="shape=partialRectangle;overflow=hidden;connectable=0;fillColor=none;strokeColor=inherit;top=0;left=0;bottom=0;right=0;" vertex="1" parent="tA-CkoTOrNPdyP2uNprh-461">
          <mxGeometry width="30" height="30" as="geometry">
            <mxRectangle width="30" height="30" as="alternateBounds" />
          </mxGeometry>
        </mxCell>
        <mxCell id="tA-CkoTOrNPdyP2uNprh-463" value="`startdate` date NOT NULL" style="shape=partialRectangle;overflow=hidden;connectable=0;fillColor=none;align=left;strokeColor=inherit;top=0;left=0;bottom=0;right=0;spacingLeft=6;" vertex="1" parent="tA-CkoTOrNPdyP2uNprh-461">
          <mxGeometry x="30" width="250" height="30" as="geometry">
            <mxRectangle width="250" height="30" as="alternateBounds" />
          </mxGeometry>
        </mxCell>
        <mxCell id="tA-CkoTOrNPdyP2uNprh-464" value="" style="shape=tableRow;horizontal=0;startSize=0;swimlaneHead=0;swimlaneBody=0;fillColor=none;collapsible=0;dropTarget=0;points=[[0,0.5],[1,0.5]];portConstraint=eastwest;strokeColor=inherit;top=0;left=0;right=0;bottom=0;" vertex="1" parent="tA-CkoTOrNPdyP2uNprh-454">
          <mxGeometry y="120" width="280" height="30" as="geometry" />
        </mxCell>
        <mxCell id="tA-CkoTOrNPdyP2uNprh-465" value="" style="shape=partialRectangle;overflow=hidden;connectable=0;fillColor=none;strokeColor=inherit;top=0;left=0;bottom=0;right=0;" vertex="1" parent="tA-CkoTOrNPdyP2uNprh-464">
          <mxGeometry width="30" height="30" as="geometry">
            <mxRectangle width="30" height="30" as="alternateBounds" />
          </mxGeometry>
        </mxCell>
        <mxCell id="tA-CkoTOrNPdyP2uNprh-466" value="`enddate` date NOT NULL" style="shape=partialRectangle;overflow=hidden;connectable=0;fillColor=none;align=left;strokeColor=inherit;top=0;left=0;bottom=0;right=0;spacingLeft=6;" vertex="1" parent="tA-CkoTOrNPdyP2uNprh-464">
          <mxGeometry x="30" width="250" height="30" as="geometry">
            <mxRectangle width="250" height="30" as="alternateBounds" />
          </mxGeometry>
        </mxCell>
        <mxCell id="tA-CkoTOrNPdyP2uNprh-467" value="" style="shape=tableRow;horizontal=0;startSize=0;swimlaneHead=0;swimlaneBody=0;fillColor=none;collapsible=0;dropTarget=0;points=[[0,0.5],[1,0.5]];portConstraint=eastwest;strokeColor=inherit;top=0;left=0;right=0;bottom=0;" vertex="1" parent="tA-CkoTOrNPdyP2uNprh-454">
          <mxGeometry y="150" width="280" height="30" as="geometry" />
        </mxCell>
        <mxCell id="tA-CkoTOrNPdyP2uNprh-468" value="" style="shape=partialRectangle;overflow=hidden;connectable=0;fillColor=none;strokeColor=inherit;top=0;left=0;bottom=0;right=0;" vertex="1" parent="tA-CkoTOrNPdyP2uNprh-467">
          <mxGeometry width="30" height="30" as="geometry">
            <mxRectangle width="30" height="30" as="alternateBounds" />
          </mxGeometry>
        </mxCell>
        <mxCell id="tA-CkoTOrNPdyP2uNprh-469" value="`holder_name` varchar(100) NOT NULL" style="shape=partialRectangle;overflow=hidden;connectable=0;fillColor=none;align=left;strokeColor=inherit;top=0;left=0;bottom=0;right=0;spacingLeft=6;" vertex="1" parent="tA-CkoTOrNPdyP2uNprh-467">
          <mxGeometry x="30" width="250" height="30" as="geometry">
            <mxRectangle width="250" height="30" as="alternateBounds" />
          </mxGeometry>
        </mxCell>
        <mxCell id="tA-CkoTOrNPdyP2uNprh-470" value="" style="shape=tableRow;horizontal=0;startSize=0;swimlaneHead=0;swimlaneBody=0;fillColor=none;collapsible=0;dropTarget=0;points=[[0,0.5],[1,0.5]];portConstraint=eastwest;strokeColor=inherit;top=0;left=0;right=0;bottom=0;" vertex="1" parent="tA-CkoTOrNPdyP2uNprh-454">
          <mxGeometry y="180" width="280" height="30" as="geometry" />
        </mxCell>
        <mxCell id="tA-CkoTOrNPdyP2uNprh-471" value="" style="shape=partialRectangle;overflow=hidden;connectable=0;fillColor=none;strokeColor=inherit;top=0;left=0;bottom=0;right=0;" vertex="1" parent="tA-CkoTOrNPdyP2uNprh-470">
          <mxGeometry width="30" height="30" as="geometry">
            <mxRectangle width="30" height="30" as="alternateBounds" />
          </mxGeometry>
        </mxCell>
        <mxCell id="tA-CkoTOrNPdyP2uNprh-472" value="`card_number` bigint NOT NULL" style="shape=partialRectangle;overflow=hidden;connectable=0;fillColor=none;align=left;strokeColor=inherit;top=0;left=0;bottom=0;right=0;spacingLeft=6;" vertex="1" parent="tA-CkoTOrNPdyP2uNprh-470">
          <mxGeometry x="30" width="250" height="30" as="geometry">
            <mxRectangle width="250" height="30" as="alternateBounds" />
          </mxGeometry>
        </mxCell>
        <mxCell id="tA-CkoTOrNPdyP2uNprh-473" value="" style="shape=tableRow;horizontal=0;startSize=0;swimlaneHead=0;swimlaneBody=0;fillColor=none;collapsible=0;dropTarget=0;points=[[0,0.5],[1,0.5]];portConstraint=eastwest;strokeColor=inherit;top=0;left=0;right=0;bottom=0;" vertex="1" parent="tA-CkoTOrNPdyP2uNprh-454">
          <mxGeometry y="210" width="280" height="30" as="geometry" />
        </mxCell>
        <mxCell id="tA-CkoTOrNPdyP2uNprh-474" value="" style="shape=partialRectangle;overflow=hidden;connectable=0;fillColor=none;strokeColor=inherit;top=0;left=0;bottom=0;right=0;" vertex="1" parent="tA-CkoTOrNPdyP2uNprh-473">
          <mxGeometry width="30" height="30" as="geometry">
            <mxRectangle width="30" height="30" as="alternateBounds" />
          </mxGeometry>
        </mxCell>
        <mxCell id="tA-CkoTOrNPdyP2uNprh-475" value="`cvv_number` bigint NOT NULL" style="shape=partialRectangle;overflow=hidden;connectable=0;fillColor=none;align=left;strokeColor=inherit;top=0;left=0;bottom=0;right=0;spacingLeft=6;" vertex="1" parent="tA-CkoTOrNPdyP2uNprh-473">
          <mxGeometry x="30" width="250" height="30" as="geometry">
            <mxRectangle width="250" height="30" as="alternateBounds" />
          </mxGeometry>
        </mxCell>
        <mxCell id="tA-CkoTOrNPdyP2uNprh-476" value="" style="shape=tableRow;horizontal=0;startSize=0;swimlaneHead=0;swimlaneBody=0;fillColor=none;collapsible=0;dropTarget=0;points=[[0,0.5],[1,0.5]];portConstraint=eastwest;strokeColor=inherit;top=0;left=0;right=0;bottom=0;" vertex="1" parent="tA-CkoTOrNPdyP2uNprh-454">
          <mxGeometry y="240" width="280" height="30" as="geometry" />
        </mxCell>
        <mxCell id="tA-CkoTOrNPdyP2uNprh-477" value="" style="shape=partialRectangle;overflow=hidden;connectable=0;fillColor=none;strokeColor=inherit;top=0;left=0;bottom=0;right=0;" vertex="1" parent="tA-CkoTOrNPdyP2uNprh-476">
          <mxGeometry width="30" height="30" as="geometry">
            <mxRectangle width="30" height="30" as="alternateBounds" />
          </mxGeometry>
        </mxCell>
        <mxCell id="tA-CkoTOrNPdyP2uNprh-478" value="`bank_name` varchar(100) NOT NULL" style="shape=partialRectangle;overflow=hidden;connectable=0;fillColor=none;align=left;strokeColor=inherit;top=0;left=0;bottom=0;right=0;spacingLeft=6;" vertex="1" parent="tA-CkoTOrNPdyP2uNprh-476">
          <mxGeometry x="30" width="250" height="30" as="geometry">
            <mxRectangle width="250" height="30" as="alternateBounds" />
          </mxGeometry>
        </mxCell>
        <mxCell id="tA-CkoTOrNPdyP2uNprh-479" value="" style="shape=tableRow;horizontal=0;startSize=0;swimlaneHead=0;swimlaneBody=0;fillColor=none;collapsible=0;dropTarget=0;points=[[0,0.5],[1,0.5]];portConstraint=eastwest;strokeColor=inherit;top=0;left=0;right=0;bottom=0;" vertex="1" parent="tA-CkoTOrNPdyP2uNprh-454">
          <mxGeometry y="270" width="280" height="30" as="geometry" />
        </mxCell>
        <mxCell id="tA-CkoTOrNPdyP2uNprh-480" value="" style="shape=partialRectangle;overflow=hidden;connectable=0;fillColor=none;strokeColor=inherit;top=0;left=0;bottom=0;right=0;" vertex="1" parent="tA-CkoTOrNPdyP2uNprh-479">
          <mxGeometry width="30" height="30" as="geometry">
            <mxRectangle width="30" height="30" as="alternateBounds" />
          </mxGeometry>
        </mxCell>
        <mxCell id="tA-CkoTOrNPdyP2uNprh-481" value="`subscription_id` bigint NOT NULL" style="shape=partialRectangle;overflow=hidden;connectable=0;fillColor=none;align=left;strokeColor=inherit;top=0;left=0;bottom=0;right=0;spacingLeft=6;" vertex="1" parent="tA-CkoTOrNPdyP2uNprh-479">
          <mxGeometry x="30" width="250" height="30" as="geometry">
            <mxRectangle width="250" height="30" as="alternateBounds" />
          </mxGeometry>
        </mxCell>
        <mxCell id="tA-CkoTOrNPdyP2uNprh-482" value="" style="shape=tableRow;horizontal=0;startSize=0;swimlaneHead=0;swimlaneBody=0;fillColor=none;collapsible=0;dropTarget=0;points=[[0,0.5],[1,0.5]];portConstraint=eastwest;strokeColor=inherit;top=0;left=0;right=0;bottom=0;" vertex="1" parent="tA-CkoTOrNPdyP2uNprh-454">
          <mxGeometry y="300" width="280" height="30" as="geometry" />
        </mxCell>
        <mxCell id="tA-CkoTOrNPdyP2uNprh-483" value="" style="shape=partialRectangle;overflow=hidden;connectable=0;fillColor=none;strokeColor=inherit;top=0;left=0;bottom=0;right=0;" vertex="1" parent="tA-CkoTOrNPdyP2uNprh-482">
          <mxGeometry width="30" height="30" as="geometry">
            <mxRectangle width="30" height="30" as="alternateBounds" />
          </mxGeometry>
        </mxCell>
        <mxCell id="tA-CkoTOrNPdyP2uNprh-484" value="KEY `dreamapp_subscribers_subscription_id_db5607c5_fk_dreamapp_` (`subscription_id`)" style="shape=partialRectangle;overflow=hidden;connectable=0;fillColor=none;align=left;strokeColor=inherit;top=0;left=0;bottom=0;right=0;spacingLeft=6;" vertex="1" parent="tA-CkoTOrNPdyP2uNprh-482">
          <mxGeometry x="30" width="250" height="30" as="geometry">
            <mxRectangle width="250" height="30" as="alternateBounds" />
          </mxGeometry>
        </mxCell>
        <mxCell id="tA-CkoTOrNPdyP2uNprh-485" value="" style="shape=tableRow;horizontal=0;startSize=0;swimlaneHead=0;swimlaneBody=0;fillColor=none;collapsible=0;dropTarget=0;points=[[0,0.5],[1,0.5]];portConstraint=eastwest;strokeColor=inherit;top=0;left=0;right=0;bottom=0;" vertex="1" parent="tA-CkoTOrNPdyP2uNprh-454">
          <mxGeometry y="330" width="280" height="30" as="geometry" />
        </mxCell>
        <mxCell id="tA-CkoTOrNPdyP2uNprh-486" value="" style="shape=partialRectangle;overflow=hidden;connectable=0;fillColor=none;strokeColor=inherit;top=0;left=0;bottom=0;right=0;" vertex="1" parent="tA-CkoTOrNPdyP2uNprh-485">
          <mxGeometry width="30" height="30" as="geometry">
            <mxRectangle width="30" height="30" as="alternateBounds" />
          </mxGeometry>
        </mxCell>
        <mxCell id="tA-CkoTOrNPdyP2uNprh-487" value="CONSTRAINT `dreamapp_subscribers_subscription_id_db5607c5_fk_dreamapp_` FOREIGN KEY (`subscription_id`) REFERENCES `dreamapp_subscription` (`id`)" style="shape=partialRectangle;overflow=hidden;connectable=0;fillColor=none;align=left;strokeColor=inherit;top=0;left=0;bottom=0;right=0;spacingLeft=6;" vertex="1" parent="tA-CkoTOrNPdyP2uNprh-485">
          <mxGeometry x="30" width="250" height="30" as="geometry">
            <mxRectangle width="250" height="30" as="alternateBounds" />
          </mxGeometry>
        </mxCell>
        <mxCell id="tA-CkoTOrNPdyP2uNprh-488" value="`dreamapp_subscription`" style="shape=table;startSize=30;container=1;collapsible=1;childLayout=tableLayout;fixedRows=1;rowLines=0;fontStyle=1;align=center;resizeLast=1;" vertex="1" parent="1">
          <mxGeometry x="-360" y="1200" width="280" height="240" as="geometry" />
        </mxCell>
        <mxCell id="tA-CkoTOrNPdyP2uNprh-489" value="" style="shape=tableRow;horizontal=0;startSize=0;swimlaneHead=0;swimlaneBody=0;fillColor=none;collapsible=0;dropTarget=0;points=[[0,0.5],[1,0.5]];portConstraint=eastwest;strokeColor=inherit;top=0;left=0;right=0;bottom=1;" vertex="1" parent="tA-CkoTOrNPdyP2uNprh-488">
          <mxGeometry y="30" width="280" height="30" as="geometry" />
        </mxCell>
        <mxCell id="tA-CkoTOrNPdyP2uNprh-490" value="PK" style="shape=partialRectangle;overflow=hidden;connectable=0;fillColor=none;strokeColor=inherit;top=0;left=0;bottom=0;right=0;fontStyle=1;" vertex="1" parent="tA-CkoTOrNPdyP2uNprh-489">
          <mxGeometry width="30" height="30" as="geometry">
            <mxRectangle width="30" height="30" as="alternateBounds" />
          </mxGeometry>
        </mxCell>
        <mxCell id="tA-CkoTOrNPdyP2uNprh-491" value="`id` bigint NOT NULL AUTO_INCREMENT" style="shape=partialRectangle;overflow=hidden;connectable=0;fillColor=none;align=left;strokeColor=inherit;top=0;left=0;bottom=0;right=0;spacingLeft=6;fontStyle=5;" vertex="1" parent="tA-CkoTOrNPdyP2uNprh-489">
          <mxGeometry x="30" width="250" height="30" as="geometry">
            <mxRectangle width="250" height="30" as="alternateBounds" />
          </mxGeometry>
        </mxCell>
        <mxCell id="tA-CkoTOrNPdyP2uNprh-492" value="" style="shape=tableRow;horizontal=0;startSize=0;swimlaneHead=0;swimlaneBody=0;fillColor=none;collapsible=0;dropTarget=0;points=[[0,0.5],[1,0.5]];portConstraint=eastwest;strokeColor=inherit;top=0;left=0;right=0;bottom=0;" vertex="1" parent="tA-CkoTOrNPdyP2uNprh-488">
          <mxGeometry y="60" width="280" height="30" as="geometry" />
        </mxCell>
        <mxCell id="tA-CkoTOrNPdyP2uNprh-493" value="" style="shape=partialRectangle;overflow=hidden;connectable=0;fillColor=none;strokeColor=inherit;top=0;left=0;bottom=0;right=0;" vertex="1" parent="tA-CkoTOrNPdyP2uNprh-492">
          <mxGeometry width="30" height="30" as="geometry">
            <mxRectangle width="30" height="30" as="alternateBounds" />
          </mxGeometry>
        </mxCell>
        <mxCell id="tA-CkoTOrNPdyP2uNprh-494" value="`email` varchar(254) NOT NULL" style="shape=partialRectangle;overflow=hidden;connectable=0;fillColor=none;align=left;strokeColor=inherit;top=0;left=0;bottom=0;right=0;spacingLeft=6;" vertex="1" parent="tA-CkoTOrNPdyP2uNprh-492">
          <mxGeometry x="30" width="250" height="30" as="geometry">
            <mxRectangle width="250" height="30" as="alternateBounds" />
          </mxGeometry>
        </mxCell>
        <mxCell id="tA-CkoTOrNPdyP2uNprh-495" value="" style="shape=tableRow;horizontal=0;startSize=0;swimlaneHead=0;swimlaneBody=0;fillColor=none;collapsible=0;dropTarget=0;points=[[0,0.5],[1,0.5]];portConstraint=eastwest;strokeColor=inherit;top=0;left=0;right=0;bottom=0;" vertex="1" parent="tA-CkoTOrNPdyP2uNprh-488">
          <mxGeometry y="90" width="280" height="30" as="geometry" />
        </mxCell>
        <mxCell id="tA-CkoTOrNPdyP2uNprh-496" value="" style="shape=partialRectangle;overflow=hidden;connectable=0;fillColor=none;strokeColor=inherit;top=0;left=0;bottom=0;right=0;" vertex="1" parent="tA-CkoTOrNPdyP2uNprh-495">
          <mxGeometry width="30" height="30" as="geometry">
            <mxRectangle width="30" height="30" as="alternateBounds" />
          </mxGeometry>
        </mxCell>
        <mxCell id="tA-CkoTOrNPdyP2uNprh-497" value="`title` varchar(100) NOT NULL" style="shape=partialRectangle;overflow=hidden;connectable=0;fillColor=none;align=left;strokeColor=inherit;top=0;left=0;bottom=0;right=0;spacingLeft=6;" vertex="1" parent="tA-CkoTOrNPdyP2uNprh-495">
          <mxGeometry x="30" width="250" height="30" as="geometry">
            <mxRectangle width="250" height="30" as="alternateBounds" />
          </mxGeometry>
        </mxCell>
        <mxCell id="tA-CkoTOrNPdyP2uNprh-498" value="" style="shape=tableRow;horizontal=0;startSize=0;swimlaneHead=0;swimlaneBody=0;fillColor=none;collapsible=0;dropTarget=0;points=[[0,0.5],[1,0.5]];portConstraint=eastwest;strokeColor=inherit;top=0;left=0;right=0;bottom=0;" vertex="1" parent="tA-CkoTOrNPdyP2uNprh-488">
          <mxGeometry y="120" width="280" height="30" as="geometry" />
        </mxCell>
        <mxCell id="tA-CkoTOrNPdyP2uNprh-499" value="" style="shape=partialRectangle;overflow=hidden;connectable=0;fillColor=none;strokeColor=inherit;top=0;left=0;bottom=0;right=0;" vertex="1" parent="tA-CkoTOrNPdyP2uNprh-498">
          <mxGeometry width="30" height="30" as="geometry">
            <mxRectangle width="30" height="30" as="alternateBounds" />
          </mxGeometry>
        </mxCell>
        <mxCell id="tA-CkoTOrNPdyP2uNprh-500" value="`months` int NOT NULL" style="shape=partialRectangle;overflow=hidden;connectable=0;fillColor=none;align=left;strokeColor=inherit;top=0;left=0;bottom=0;right=0;spacingLeft=6;" vertex="1" parent="tA-CkoTOrNPdyP2uNprh-498">
          <mxGeometry x="30" width="250" height="30" as="geometry">
            <mxRectangle width="250" height="30" as="alternateBounds" />
          </mxGeometry>
        </mxCell>
        <mxCell id="tA-CkoTOrNPdyP2uNprh-501" value="" style="shape=tableRow;horizontal=0;startSize=0;swimlaneHead=0;swimlaneBody=0;fillColor=none;collapsible=0;dropTarget=0;points=[[0,0.5],[1,0.5]];portConstraint=eastwest;strokeColor=inherit;top=0;left=0;right=0;bottom=0;" vertex="1" parent="tA-CkoTOrNPdyP2uNprh-488">
          <mxGeometry y="150" width="280" height="30" as="geometry" />
        </mxCell>
        <mxCell id="tA-CkoTOrNPdyP2uNprh-502" value="" style="shape=partialRectangle;overflow=hidden;connectable=0;fillColor=none;strokeColor=inherit;top=0;left=0;bottom=0;right=0;" vertex="1" parent="tA-CkoTOrNPdyP2uNprh-501">
          <mxGeometry width="30" height="30" as="geometry">
            <mxRectangle width="30" height="30" as="alternateBounds" />
          </mxGeometry>
        </mxCell>
        <mxCell id="tA-CkoTOrNPdyP2uNprh-503" value="`cost` bigint NOT NULL" style="shape=partialRectangle;overflow=hidden;connectable=0;fillColor=none;align=left;strokeColor=inherit;top=0;left=0;bottom=0;right=0;spacingLeft=6;" vertex="1" parent="tA-CkoTOrNPdyP2uNprh-501">
          <mxGeometry x="30" width="250" height="30" as="geometry">
            <mxRectangle width="250" height="30" as="alternateBounds" />
          </mxGeometry>
        </mxCell>
        <mxCell id="tA-CkoTOrNPdyP2uNprh-504" value="" style="shape=tableRow;horizontal=0;startSize=0;swimlaneHead=0;swimlaneBody=0;fillColor=none;collapsible=0;dropTarget=0;points=[[0,0.5],[1,0.5]];portConstraint=eastwest;strokeColor=inherit;top=0;left=0;right=0;bottom=0;" vertex="1" parent="tA-CkoTOrNPdyP2uNprh-488">
          <mxGeometry y="180" width="280" height="30" as="geometry" />
        </mxCell>
        <mxCell id="tA-CkoTOrNPdyP2uNprh-505" value="" style="shape=partialRectangle;overflow=hidden;connectable=0;fillColor=none;strokeColor=inherit;top=0;left=0;bottom=0;right=0;" vertex="1" parent="tA-CkoTOrNPdyP2uNprh-504">
          <mxGeometry width="30" height="30" as="geometry">
            <mxRectangle width="30" height="30" as="alternateBounds" />
          </mxGeometry>
        </mxCell>
        <mxCell id="tA-CkoTOrNPdyP2uNprh-506" value="`discount` bigint NOT NULL" style="shape=partialRectangle;overflow=hidden;connectable=0;fillColor=none;align=left;strokeColor=inherit;top=0;left=0;bottom=0;right=0;spacingLeft=6;" vertex="1" parent="tA-CkoTOrNPdyP2uNprh-504">
          <mxGeometry x="30" width="250" height="30" as="geometry">
            <mxRectangle width="250" height="30" as="alternateBounds" />
          </mxGeometry>
        </mxCell>
        <mxCell id="tA-CkoTOrNPdyP2uNprh-507" value="" style="shape=tableRow;horizontal=0;startSize=0;swimlaneHead=0;swimlaneBody=0;fillColor=none;collapsible=0;dropTarget=0;points=[[0,0.5],[1,0.5]];portConstraint=eastwest;strokeColor=inherit;top=0;left=0;right=0;bottom=0;" vertex="1" parent="tA-CkoTOrNPdyP2uNprh-488">
          <mxGeometry y="210" width="280" height="30" as="geometry" />
        </mxCell>
        <mxCell id="tA-CkoTOrNPdyP2uNprh-508" value="" style="shape=partialRectangle;overflow=hidden;connectable=0;fillColor=none;strokeColor=inherit;top=0;left=0;bottom=0;right=0;" vertex="1" parent="tA-CkoTOrNPdyP2uNprh-507">
          <mxGeometry width="30" height="30" as="geometry">
            <mxRectangle width="30" height="30" as="alternateBounds" />
          </mxGeometry>
        </mxCell>
        <mxCell id="tA-CkoTOrNPdyP2uNprh-509" value="`date_time` datetime(6) NOT NULL" style="shape=partialRectangle;overflow=hidden;connectable=0;fillColor=none;align=left;strokeColor=inherit;top=0;left=0;bottom=0;right=0;spacingLeft=6;" vertex="1" parent="tA-CkoTOrNPdyP2uNprh-507">
          <mxGeometry x="30" width="250" height="30" as="geometry">
            <mxRectangle width="250" height="30" as="alternateBounds" />
          </mxGeometry>
        </mxCell>
        <mxCell id="tA-CkoTOrNPdyP2uNprh-510" value="`dreamapp_webseries`" style="shape=table;startSize=30;container=1;collapsible=1;childLayout=tableLayout;fixedRows=1;rowLines=0;fontStyle=1;align=center;resizeLast=1;" vertex="1" parent="1">
          <mxGeometry x="-20" y="1140" width="290" height="360" as="geometry" />
        </mxCell>
        <mxCell id="tA-CkoTOrNPdyP2uNprh-511" value="" style="shape=tableRow;horizontal=0;startSize=0;swimlaneHead=0;swimlaneBody=0;fillColor=none;collapsible=0;dropTarget=0;points=[[0,0.5],[1,0.5]];portConstraint=eastwest;strokeColor=inherit;top=0;left=0;right=0;bottom=1;" vertex="1" parent="tA-CkoTOrNPdyP2uNprh-510">
          <mxGeometry y="30" width="290" height="30" as="geometry" />
        </mxCell>
        <mxCell id="tA-CkoTOrNPdyP2uNprh-512" value="PK" style="shape=partialRectangle;overflow=hidden;connectable=0;fillColor=none;strokeColor=inherit;top=0;left=0;bottom=0;right=0;fontStyle=1;" vertex="1" parent="tA-CkoTOrNPdyP2uNprh-511">
          <mxGeometry width="30" height="30" as="geometry">
            <mxRectangle width="30" height="30" as="alternateBounds" />
          </mxGeometry>
        </mxCell>
        <mxCell id="tA-CkoTOrNPdyP2uNprh-513" value="`id` bigint NOT NULL AUTO_INCREMENT" style="shape=partialRectangle;overflow=hidden;connectable=0;fillColor=none;align=left;strokeColor=inherit;top=0;left=0;bottom=0;right=0;spacingLeft=6;fontStyle=5;" vertex="1" parent="tA-CkoTOrNPdyP2uNprh-511">
          <mxGeometry x="30" width="260" height="30" as="geometry">
            <mxRectangle width="260" height="30" as="alternateBounds" />
          </mxGeometry>
        </mxCell>
        <mxCell id="tA-CkoTOrNPdyP2uNprh-514" value="" style="shape=tableRow;horizontal=0;startSize=0;swimlaneHead=0;swimlaneBody=0;fillColor=none;collapsible=0;dropTarget=0;points=[[0,0.5],[1,0.5]];portConstraint=eastwest;strokeColor=inherit;top=0;left=0;right=0;bottom=0;" vertex="1" parent="tA-CkoTOrNPdyP2uNprh-510">
          <mxGeometry y="60" width="290" height="30" as="geometry" />
        </mxCell>
        <mxCell id="tA-CkoTOrNPdyP2uNprh-515" value="" style="shape=partialRectangle;overflow=hidden;connectable=0;fillColor=none;strokeColor=inherit;top=0;left=0;bottom=0;right=0;" vertex="1" parent="tA-CkoTOrNPdyP2uNprh-514">
          <mxGeometry width="30" height="30" as="geometry">
            <mxRectangle width="30" height="30" as="alternateBounds" />
          </mxGeometry>
        </mxCell>
        <mxCell id="tA-CkoTOrNPdyP2uNprh-516" value="`title` varchar(255) NOT NULL" style="shape=partialRectangle;overflow=hidden;connectable=0;fillColor=none;align=left;strokeColor=inherit;top=0;left=0;bottom=0;right=0;spacingLeft=6;" vertex="1" parent="tA-CkoTOrNPdyP2uNprh-514">
          <mxGeometry x="30" width="260" height="30" as="geometry">
            <mxRectangle width="260" height="30" as="alternateBounds" />
          </mxGeometry>
        </mxCell>
        <mxCell id="tA-CkoTOrNPdyP2uNprh-517" value="" style="shape=tableRow;horizontal=0;startSize=0;swimlaneHead=0;swimlaneBody=0;fillColor=none;collapsible=0;dropTarget=0;points=[[0,0.5],[1,0.5]];portConstraint=eastwest;strokeColor=inherit;top=0;left=0;right=0;bottom=0;" vertex="1" parent="tA-CkoTOrNPdyP2uNprh-510">
          <mxGeometry y="90" width="290" height="30" as="geometry" />
        </mxCell>
        <mxCell id="tA-CkoTOrNPdyP2uNprh-518" value="" style="shape=partialRectangle;overflow=hidden;connectable=0;fillColor=none;strokeColor=inherit;top=0;left=0;bottom=0;right=0;" vertex="1" parent="tA-CkoTOrNPdyP2uNprh-517">
          <mxGeometry width="30" height="30" as="geometry">
            <mxRectangle width="30" height="30" as="alternateBounds" />
          </mxGeometry>
        </mxCell>
        <mxCell id="tA-CkoTOrNPdyP2uNprh-519" value="`category` varchar(255) NOT NULL" style="shape=partialRectangle;overflow=hidden;connectable=0;fillColor=none;align=left;strokeColor=inherit;top=0;left=0;bottom=0;right=0;spacingLeft=6;" vertex="1" parent="tA-CkoTOrNPdyP2uNprh-517">
          <mxGeometry x="30" width="260" height="30" as="geometry">
            <mxRectangle width="260" height="30" as="alternateBounds" />
          </mxGeometry>
        </mxCell>
        <mxCell id="tA-CkoTOrNPdyP2uNprh-520" value="" style="shape=tableRow;horizontal=0;startSize=0;swimlaneHead=0;swimlaneBody=0;fillColor=none;collapsible=0;dropTarget=0;points=[[0,0.5],[1,0.5]];portConstraint=eastwest;strokeColor=inherit;top=0;left=0;right=0;bottom=0;" vertex="1" parent="tA-CkoTOrNPdyP2uNprh-510">
          <mxGeometry y="120" width="290" height="30" as="geometry" />
        </mxCell>
        <mxCell id="tA-CkoTOrNPdyP2uNprh-521" value="" style="shape=partialRectangle;overflow=hidden;connectable=0;fillColor=none;strokeColor=inherit;top=0;left=0;bottom=0;right=0;" vertex="1" parent="tA-CkoTOrNPdyP2uNprh-520">
          <mxGeometry width="30" height="30" as="geometry">
            <mxRectangle width="30" height="30" as="alternateBounds" />
          </mxGeometry>
        </mxCell>
        <mxCell id="tA-CkoTOrNPdyP2uNprh-522" value="`cast` varchar(255) NOT NULL" style="shape=partialRectangle;overflow=hidden;connectable=0;fillColor=none;align=left;strokeColor=inherit;top=0;left=0;bottom=0;right=0;spacingLeft=6;" vertex="1" parent="tA-CkoTOrNPdyP2uNprh-520">
          <mxGeometry x="30" width="260" height="30" as="geometry">
            <mxRectangle width="260" height="30" as="alternateBounds" />
          </mxGeometry>
        </mxCell>
        <mxCell id="tA-CkoTOrNPdyP2uNprh-523" value="" style="shape=tableRow;horizontal=0;startSize=0;swimlaneHead=0;swimlaneBody=0;fillColor=none;collapsible=0;dropTarget=0;points=[[0,0.5],[1,0.5]];portConstraint=eastwest;strokeColor=inherit;top=0;left=0;right=0;bottom=0;" vertex="1" parent="tA-CkoTOrNPdyP2uNprh-510">
          <mxGeometry y="150" width="290" height="30" as="geometry" />
        </mxCell>
        <mxCell id="tA-CkoTOrNPdyP2uNprh-524" value="" style="shape=partialRectangle;overflow=hidden;connectable=0;fillColor=none;strokeColor=inherit;top=0;left=0;bottom=0;right=0;" vertex="1" parent="tA-CkoTOrNPdyP2uNprh-523">
          <mxGeometry width="30" height="30" as="geometry">
            <mxRectangle width="30" height="30" as="alternateBounds" />
          </mxGeometry>
        </mxCell>
        <mxCell id="tA-CkoTOrNPdyP2uNprh-525" value="`description` longtext NOT NULL" style="shape=partialRectangle;overflow=hidden;connectable=0;fillColor=none;align=left;strokeColor=inherit;top=0;left=0;bottom=0;right=0;spacingLeft=6;" vertex="1" parent="tA-CkoTOrNPdyP2uNprh-523">
          <mxGeometry x="30" width="260" height="30" as="geometry">
            <mxRectangle width="260" height="30" as="alternateBounds" />
          </mxGeometry>
        </mxCell>
        <mxCell id="tA-CkoTOrNPdyP2uNprh-526" value="" style="shape=tableRow;horizontal=0;startSize=0;swimlaneHead=0;swimlaneBody=0;fillColor=none;collapsible=0;dropTarget=0;points=[[0,0.5],[1,0.5]];portConstraint=eastwest;strokeColor=inherit;top=0;left=0;right=0;bottom=0;" vertex="1" parent="tA-CkoTOrNPdyP2uNprh-510">
          <mxGeometry y="180" width="290" height="30" as="geometry" />
        </mxCell>
        <mxCell id="tA-CkoTOrNPdyP2uNprh-527" value="" style="shape=partialRectangle;overflow=hidden;connectable=0;fillColor=none;strokeColor=inherit;top=0;left=0;bottom=0;right=0;" vertex="1" parent="tA-CkoTOrNPdyP2uNprh-526">
          <mxGeometry width="30" height="30" as="geometry">
            <mxRectangle width="30" height="30" as="alternateBounds" />
          </mxGeometry>
        </mxCell>
        <mxCell id="tA-CkoTOrNPdyP2uNprh-528" value="`duration` bigint NOT NULL" style="shape=partialRectangle;overflow=hidden;connectable=0;fillColor=none;align=left;strokeColor=inherit;top=0;left=0;bottom=0;right=0;spacingLeft=6;" vertex="1" parent="tA-CkoTOrNPdyP2uNprh-526">
          <mxGeometry x="30" width="260" height="30" as="geometry">
            <mxRectangle width="260" height="30" as="alternateBounds" />
          </mxGeometry>
        </mxCell>
        <mxCell id="tA-CkoTOrNPdyP2uNprh-529" value="" style="shape=tableRow;horizontal=0;startSize=0;swimlaneHead=0;swimlaneBody=0;fillColor=none;collapsible=0;dropTarget=0;points=[[0,0.5],[1,0.5]];portConstraint=eastwest;strokeColor=inherit;top=0;left=0;right=0;bottom=0;" vertex="1" parent="tA-CkoTOrNPdyP2uNprh-510">
          <mxGeometry y="210" width="290" height="30" as="geometry" />
        </mxCell>
        <mxCell id="tA-CkoTOrNPdyP2uNprh-530" value="" style="shape=partialRectangle;overflow=hidden;connectable=0;fillColor=none;strokeColor=inherit;top=0;left=0;bottom=0;right=0;" vertex="1" parent="tA-CkoTOrNPdyP2uNprh-529">
          <mxGeometry width="30" height="30" as="geometry">
            <mxRectangle width="30" height="30" as="alternateBounds" />
          </mxGeometry>
        </mxCell>
        <mxCell id="tA-CkoTOrNPdyP2uNprh-531" value="`director` varchar(255) NOT NULL" style="shape=partialRectangle;overflow=hidden;connectable=0;fillColor=none;align=left;strokeColor=inherit;top=0;left=0;bottom=0;right=0;spacingLeft=6;" vertex="1" parent="tA-CkoTOrNPdyP2uNprh-529">
          <mxGeometry x="30" width="260" height="30" as="geometry">
            <mxRectangle width="260" height="30" as="alternateBounds" />
          </mxGeometry>
        </mxCell>
        <mxCell id="tA-CkoTOrNPdyP2uNprh-532" value="" style="shape=tableRow;horizontal=0;startSize=0;swimlaneHead=0;swimlaneBody=0;fillColor=none;collapsible=0;dropTarget=0;points=[[0,0.5],[1,0.5]];portConstraint=eastwest;strokeColor=inherit;top=0;left=0;right=0;bottom=0;" vertex="1" parent="tA-CkoTOrNPdyP2uNprh-510">
          <mxGeometry y="240" width="290" height="30" as="geometry" />
        </mxCell>
        <mxCell id="tA-CkoTOrNPdyP2uNprh-533" value="" style="shape=partialRectangle;overflow=hidden;connectable=0;fillColor=none;strokeColor=inherit;top=0;left=0;bottom=0;right=0;" vertex="1" parent="tA-CkoTOrNPdyP2uNprh-532">
          <mxGeometry width="30" height="30" as="geometry">
            <mxRectangle width="30" height="30" as="alternateBounds" />
          </mxGeometry>
        </mxCell>
        <mxCell id="tA-CkoTOrNPdyP2uNprh-534" value="`release_date` date NOT NULL" style="shape=partialRectangle;overflow=hidden;connectable=0;fillColor=none;align=left;strokeColor=inherit;top=0;left=0;bottom=0;right=0;spacingLeft=6;" vertex="1" parent="tA-CkoTOrNPdyP2uNprh-532">
          <mxGeometry x="30" width="260" height="30" as="geometry">
            <mxRectangle width="260" height="30" as="alternateBounds" />
          </mxGeometry>
        </mxCell>
        <mxCell id="tA-CkoTOrNPdyP2uNprh-535" value="" style="shape=tableRow;horizontal=0;startSize=0;swimlaneHead=0;swimlaneBody=0;fillColor=none;collapsible=0;dropTarget=0;points=[[0,0.5],[1,0.5]];portConstraint=eastwest;strokeColor=inherit;top=0;left=0;right=0;bottom=0;" vertex="1" parent="tA-CkoTOrNPdyP2uNprh-510">
          <mxGeometry y="270" width="290" height="30" as="geometry" />
        </mxCell>
        <mxCell id="tA-CkoTOrNPdyP2uNprh-536" value="" style="shape=partialRectangle;overflow=hidden;connectable=0;fillColor=none;strokeColor=inherit;top=0;left=0;bottom=0;right=0;" vertex="1" parent="tA-CkoTOrNPdyP2uNprh-535">
          <mxGeometry width="30" height="30" as="geometry">
            <mxRectangle width="30" height="30" as="alternateBounds" />
          </mxGeometry>
        </mxCell>
        <mxCell id="tA-CkoTOrNPdyP2uNprh-537" value="`language` varchar(50) NOT NULL" style="shape=partialRectangle;overflow=hidden;connectable=0;fillColor=none;align=left;strokeColor=inherit;top=0;left=0;bottom=0;right=0;spacingLeft=6;" vertex="1" parent="tA-CkoTOrNPdyP2uNprh-535">
          <mxGeometry x="30" width="260" height="30" as="geometry">
            <mxRectangle width="260" height="30" as="alternateBounds" />
          </mxGeometry>
        </mxCell>
        <mxCell id="tA-CkoTOrNPdyP2uNprh-538" value="" style="shape=tableRow;horizontal=0;startSize=0;swimlaneHead=0;swimlaneBody=0;fillColor=none;collapsible=0;dropTarget=0;points=[[0,0.5],[1,0.5]];portConstraint=eastwest;strokeColor=inherit;top=0;left=0;right=0;bottom=0;" vertex="1" parent="tA-CkoTOrNPdyP2uNprh-510">
          <mxGeometry y="300" width="290" height="30" as="geometry" />
        </mxCell>
        <mxCell id="tA-CkoTOrNPdyP2uNprh-539" value="" style="shape=partialRectangle;overflow=hidden;connectable=0;fillColor=none;strokeColor=inherit;top=0;left=0;bottom=0;right=0;" vertex="1" parent="tA-CkoTOrNPdyP2uNprh-538">
          <mxGeometry width="30" height="30" as="geometry">
            <mxRectangle width="30" height="30" as="alternateBounds" />
          </mxGeometry>
        </mxCell>
        <mxCell id="tA-CkoTOrNPdyP2uNprh-540" value="`thumbnail` varchar(100) NOT NULL" style="shape=partialRectangle;overflow=hidden;connectable=0;fillColor=none;align=left;strokeColor=inherit;top=0;left=0;bottom=0;right=0;spacingLeft=6;" vertex="1" parent="tA-CkoTOrNPdyP2uNprh-538">
          <mxGeometry x="30" width="260" height="30" as="geometry">
            <mxRectangle width="260" height="30" as="alternateBounds" />
          </mxGeometry>
        </mxCell>
        <mxCell id="tA-CkoTOrNPdyP2uNprh-541" value="" style="shape=tableRow;horizontal=0;startSize=0;swimlaneHead=0;swimlaneBody=0;fillColor=none;collapsible=0;dropTarget=0;points=[[0,0.5],[1,0.5]];portConstraint=eastwest;strokeColor=inherit;top=0;left=0;right=0;bottom=0;" vertex="1" parent="tA-CkoTOrNPdyP2uNprh-510">
          <mxGeometry y="330" width="290" height="30" as="geometry" />
        </mxCell>
        <mxCell id="tA-CkoTOrNPdyP2uNprh-542" value="" style="shape=partialRectangle;overflow=hidden;connectable=0;fillColor=none;strokeColor=inherit;top=0;left=0;bottom=0;right=0;" vertex="1" parent="tA-CkoTOrNPdyP2uNprh-541">
          <mxGeometry width="30" height="30" as="geometry">
            <mxRectangle width="30" height="30" as="alternateBounds" />
          </mxGeometry>
        </mxCell>
        <mxCell id="tA-CkoTOrNPdyP2uNprh-543" value="`webseries_video` varchar(100) NOT NULL" style="shape=partialRectangle;overflow=hidden;connectable=0;fillColor=none;align=left;strokeColor=inherit;top=0;left=0;bottom=0;right=0;spacingLeft=6;" vertex="1" parent="tA-CkoTOrNPdyP2uNprh-541">
          <mxGeometry x="30" width="260" height="30" as="geometry">
            <mxRectangle width="260" height="30" as="alternateBounds" />
          </mxGeometry>
        </mxCell>
        <mxCell id="tA-CkoTOrNPdyP2uNprh-544" value="`dreamapp_webseries_review`" style="shape=table;startSize=30;container=1;collapsible=1;childLayout=tableLayout;fixedRows=1;rowLines=0;fontStyle=1;align=center;resizeLast=1;" vertex="1" parent="1">
          <mxGeometry x="-703" y="1420" width="280" height="210" as="geometry" />
        </mxCell>
        <mxCell id="tA-CkoTOrNPdyP2uNprh-545" value="" style="shape=tableRow;horizontal=0;startSize=0;swimlaneHead=0;swimlaneBody=0;fillColor=none;collapsible=0;dropTarget=0;points=[[0,0.5],[1,0.5]];portConstraint=eastwest;strokeColor=inherit;top=0;left=0;right=0;bottom=1;" vertex="1" parent="tA-CkoTOrNPdyP2uNprh-544">
          <mxGeometry y="30" width="280" height="30" as="geometry" />
        </mxCell>
        <mxCell id="tA-CkoTOrNPdyP2uNprh-546" value="PK" style="shape=partialRectangle;overflow=hidden;connectable=0;fillColor=none;strokeColor=inherit;top=0;left=0;bottom=0;right=0;fontStyle=1;" vertex="1" parent="tA-CkoTOrNPdyP2uNprh-545">
          <mxGeometry width="30" height="30" as="geometry">
            <mxRectangle width="30" height="30" as="alternateBounds" />
          </mxGeometry>
        </mxCell>
        <mxCell id="tA-CkoTOrNPdyP2uNprh-547" value="`id` bigint NOT NULL AUTO_INCREMENT" style="shape=partialRectangle;overflow=hidden;connectable=0;fillColor=none;align=left;strokeColor=inherit;top=0;left=0;bottom=0;right=0;spacingLeft=6;fontStyle=5;" vertex="1" parent="tA-CkoTOrNPdyP2uNprh-545">
          <mxGeometry x="30" width="250" height="30" as="geometry">
            <mxRectangle width="250" height="30" as="alternateBounds" />
          </mxGeometry>
        </mxCell>
        <mxCell id="tA-CkoTOrNPdyP2uNprh-548" value="" style="shape=tableRow;horizontal=0;startSize=0;swimlaneHead=0;swimlaneBody=0;fillColor=none;collapsible=0;dropTarget=0;points=[[0,0.5],[1,0.5]];portConstraint=eastwest;strokeColor=inherit;top=0;left=0;right=0;bottom=0;" vertex="1" parent="tA-CkoTOrNPdyP2uNprh-544">
          <mxGeometry y="60" width="280" height="30" as="geometry" />
        </mxCell>
        <mxCell id="tA-CkoTOrNPdyP2uNprh-549" value="" style="shape=partialRectangle;overflow=hidden;connectable=0;fillColor=none;strokeColor=inherit;top=0;left=0;bottom=0;right=0;" vertex="1" parent="tA-CkoTOrNPdyP2uNprh-548">
          <mxGeometry width="30" height="30" as="geometry">
            <mxRectangle width="30" height="30" as="alternateBounds" />
          </mxGeometry>
        </mxCell>
        <mxCell id="tA-CkoTOrNPdyP2uNprh-550" value="`title` varchar(400) NOT NULL" style="shape=partialRectangle;overflow=hidden;connectable=0;fillColor=none;align=left;strokeColor=inherit;top=0;left=0;bottom=0;right=0;spacingLeft=6;" vertex="1" parent="tA-CkoTOrNPdyP2uNprh-548">
          <mxGeometry x="30" width="250" height="30" as="geometry">
            <mxRectangle width="250" height="30" as="alternateBounds" />
          </mxGeometry>
        </mxCell>
        <mxCell id="tA-CkoTOrNPdyP2uNprh-551" value="" style="shape=tableRow;horizontal=0;startSize=0;swimlaneHead=0;swimlaneBody=0;fillColor=none;collapsible=0;dropTarget=0;points=[[0,0.5],[1,0.5]];portConstraint=eastwest;strokeColor=inherit;top=0;left=0;right=0;bottom=0;" vertex="1" parent="tA-CkoTOrNPdyP2uNprh-544">
          <mxGeometry y="90" width="280" height="30" as="geometry" />
        </mxCell>
        <mxCell id="tA-CkoTOrNPdyP2uNprh-552" value="" style="shape=partialRectangle;overflow=hidden;connectable=0;fillColor=none;strokeColor=inherit;top=0;left=0;bottom=0;right=0;" vertex="1" parent="tA-CkoTOrNPdyP2uNprh-551">
          <mxGeometry width="30" height="30" as="geometry">
            <mxRectangle width="30" height="30" as="alternateBounds" />
          </mxGeometry>
        </mxCell>
        <mxCell id="tA-CkoTOrNPdyP2uNprh-553" value="`customer_email` varchar(254) NOT NULL" style="shape=partialRectangle;overflow=hidden;connectable=0;fillColor=none;align=left;strokeColor=inherit;top=0;left=0;bottom=0;right=0;spacingLeft=6;" vertex="1" parent="tA-CkoTOrNPdyP2uNprh-551">
          <mxGeometry x="30" width="250" height="30" as="geometry">
            <mxRectangle width="250" height="30" as="alternateBounds" />
          </mxGeometry>
        </mxCell>
        <mxCell id="tA-CkoTOrNPdyP2uNprh-554" value="" style="shape=tableRow;horizontal=0;startSize=0;swimlaneHead=0;swimlaneBody=0;fillColor=none;collapsible=0;dropTarget=0;points=[[0,0.5],[1,0.5]];portConstraint=eastwest;strokeColor=inherit;top=0;left=0;right=0;bottom=0;" vertex="1" parent="tA-CkoTOrNPdyP2uNprh-544">
          <mxGeometry y="120" width="280" height="30" as="geometry" />
        </mxCell>
        <mxCell id="tA-CkoTOrNPdyP2uNprh-555" value="" style="shape=partialRectangle;overflow=hidden;connectable=0;fillColor=none;strokeColor=inherit;top=0;left=0;bottom=0;right=0;" vertex="1" parent="tA-CkoTOrNPdyP2uNprh-554">
          <mxGeometry width="30" height="30" as="geometry">
            <mxRectangle width="30" height="30" as="alternateBounds" />
          </mxGeometry>
        </mxCell>
        <mxCell id="tA-CkoTOrNPdyP2uNprh-556" value="`date` datetime(6) NOT NULL" style="shape=partialRectangle;overflow=hidden;connectable=0;fillColor=none;align=left;strokeColor=inherit;top=0;left=0;bottom=0;right=0;spacingLeft=6;" vertex="1" parent="tA-CkoTOrNPdyP2uNprh-554">
          <mxGeometry x="30" width="250" height="30" as="geometry">
            <mxRectangle width="250" height="30" as="alternateBounds" />
          </mxGeometry>
        </mxCell>
        <mxCell id="tA-CkoTOrNPdyP2uNprh-557" value="" style="shape=tableRow;horizontal=0;startSize=0;swimlaneHead=0;swimlaneBody=0;fillColor=none;collapsible=0;dropTarget=0;points=[[0,0.5],[1,0.5]];portConstraint=eastwest;strokeColor=inherit;top=0;left=0;right=0;bottom=0;" vertex="1" parent="tA-CkoTOrNPdyP2uNprh-544">
          <mxGeometry y="150" width="280" height="30" as="geometry" />
        </mxCell>
        <mxCell id="tA-CkoTOrNPdyP2uNprh-558" value="" style="shape=partialRectangle;overflow=hidden;connectable=0;fillColor=none;strokeColor=inherit;top=0;left=0;bottom=0;right=0;" vertex="1" parent="tA-CkoTOrNPdyP2uNprh-557">
          <mxGeometry width="30" height="30" as="geometry">
            <mxRectangle width="30" height="30" as="alternateBounds" />
          </mxGeometry>
        </mxCell>
        <mxCell id="tA-CkoTOrNPdyP2uNprh-559" value="`review` varchar(150) NOT NULL" style="shape=partialRectangle;overflow=hidden;connectable=0;fillColor=none;align=left;strokeColor=inherit;top=0;left=0;bottom=0;right=0;spacingLeft=6;" vertex="1" parent="tA-CkoTOrNPdyP2uNprh-557">
          <mxGeometry x="30" width="250" height="30" as="geometry">
            <mxRectangle width="250" height="30" as="alternateBounds" />
          </mxGeometry>
        </mxCell>
        <mxCell id="tA-CkoTOrNPdyP2uNprh-560" value="" style="shape=tableRow;horizontal=0;startSize=0;swimlaneHead=0;swimlaneBody=0;fillColor=none;collapsible=0;dropTarget=0;points=[[0,0.5],[1,0.5]];portConstraint=eastwest;strokeColor=inherit;top=0;left=0;right=0;bottom=0;" vertex="1" parent="tA-CkoTOrNPdyP2uNprh-544">
          <mxGeometry y="180" width="280" height="30" as="geometry" />
        </mxCell>
        <mxCell id="tA-CkoTOrNPdyP2uNprh-561" value="" style="shape=partialRectangle;overflow=hidden;connectable=0;fillColor=none;strokeColor=inherit;top=0;left=0;bottom=0;right=0;" vertex="1" parent="tA-CkoTOrNPdyP2uNprh-560">
          <mxGeometry width="30" height="30" as="geometry">
            <mxRectangle width="30" height="30" as="alternateBounds" />
          </mxGeometry>
        </mxCell>
        <mxCell id="tA-CkoTOrNPdyP2uNprh-562" value="`rating` varchar(200) NOT NULL" style="shape=partialRectangle;overflow=hidden;connectable=0;fillColor=none;align=left;strokeColor=inherit;top=0;left=0;bottom=0;right=0;spacingLeft=6;" vertex="1" parent="tA-CkoTOrNPdyP2uNprh-560">
          <mxGeometry x="30" width="250" height="30" as="geometry">
            <mxRectangle width="250" height="30" as="alternateBounds" />
          </mxGeometry>
        </mxCell>
        <mxCell id="tA-CkoTOrNPdyP2uNprh-563" style="edgeStyle=orthogonalEdgeStyle;rounded=0;orthogonalLoop=1;jettySize=auto;html=1;exitX=1;exitY=0.5;exitDx=0;exitDy=0;entryX=1;entryY=0.5;entryDx=0;entryDy=0;" edge="1" parent="1" source="tA-CkoTOrNPdyP2uNprh-226" target="tA-CkoTOrNPdyP2uNprh-216">
          <mxGeometry relative="1" as="geometry" />
        </mxCell>
        <mxCell id="tA-CkoTOrNPdyP2uNprh-564" style="edgeStyle=orthogonalEdgeStyle;rounded=0;orthogonalLoop=1;jettySize=auto;html=1;exitX=1;exitY=0.5;exitDx=0;exitDy=0;entryX=1;entryY=0.25;entryDx=0;entryDy=0;" edge="1" parent="1" source="tA-CkoTOrNPdyP2uNprh-236" target="tA-CkoTOrNPdyP2uNprh-212">
          <mxGeometry relative="1" as="geometry" />
        </mxCell>
        <mxCell id="tA-CkoTOrNPdyP2uNprh-565" style="edgeStyle=orthogonalEdgeStyle;rounded=0;orthogonalLoop=1;jettySize=auto;html=1;exitX=1;exitY=0.5;exitDx=0;exitDy=0;entryX=0.991;entryY=0.131;entryDx=0;entryDy=0;entryPerimeter=0;" edge="1" parent="1" source="tA-CkoTOrNPdyP2uNprh-295" target="tA-CkoTOrNPdyP2uNprh-212">
          <mxGeometry relative="1" as="geometry" />
        </mxCell>
        <mxCell id="tA-CkoTOrNPdyP2uNprh-566" style="edgeStyle=orthogonalEdgeStyle;rounded=0;orthogonalLoop=1;jettySize=auto;html=1;exitX=1;exitY=0.5;exitDx=0;exitDy=0;" edge="1" parent="1" source="tA-CkoTOrNPdyP2uNprh-467" target="tA-CkoTOrNPdyP2uNprh-219">
          <mxGeometry relative="1" as="geometry">
            <Array as="points">
              <mxPoint x="-402" y="1195" />
              <mxPoint x="-402" y="600" />
              <mxPoint x="-720" y="600" />
              <mxPoint x="-720" y="175" />
            </Array>
          </mxGeometry>
        </mxCell>
        <mxCell id="tA-CkoTOrNPdyP2uNprh-567" style="edgeStyle=orthogonalEdgeStyle;rounded=0;orthogonalLoop=1;jettySize=auto;html=1;exitX=0;exitY=0.5;exitDx=0;exitDy=0;entryX=0.021;entryY=-0.044;entryDx=0;entryDy=0;entryPerimeter=0;" edge="1" parent="1" source="tA-CkoTOrNPdyP2uNprh-476" target="tA-CkoTOrNPdyP2uNprh-213">
          <mxGeometry relative="1" as="geometry" />
        </mxCell>
        <mxCell id="tA-CkoTOrNPdyP2uNprh-568" style="edgeStyle=orthogonalEdgeStyle;rounded=0;orthogonalLoop=1;jettySize=auto;html=1;exitX=0;exitY=0.5;exitDx=0;exitDy=0;" edge="1" parent="1" source="tA-CkoTOrNPdyP2uNprh-554" target="tA-CkoTOrNPdyP2uNprh-213">
          <mxGeometry relative="1" as="geometry" />
        </mxCell>
        <mxCell id="tA-CkoTOrNPdyP2uNprh-569" style="edgeStyle=orthogonalEdgeStyle;rounded=0;orthogonalLoop=1;jettySize=auto;html=1;exitX=0;exitY=0.5;exitDx=0;exitDy=0;" edge="1" parent="1" source="tA-CkoTOrNPdyP2uNprh-335" target="tA-CkoTOrNPdyP2uNprh-219">
          <mxGeometry relative="1" as="geometry" />
        </mxCell>
        <mxCell id="tA-CkoTOrNPdyP2uNprh-570" style="edgeStyle=orthogonalEdgeStyle;rounded=0;orthogonalLoop=1;jettySize=auto;html=1;exitX=0;exitY=0.5;exitDx=0;exitDy=0;" edge="1" parent="1" source="tA-CkoTOrNPdyP2uNprh-442" target="tA-CkoTOrNPdyP2uNprh-212">
          <mxGeometry relative="1" as="geometry">
            <Array as="points">
              <mxPoint x="-380" y="1045" />
              <mxPoint x="-380" y="130" />
            </Array>
          </mxGeometry>
        </mxCell>
        <mxCell id="tA-CkoTOrNPdyP2uNprh-571" style="edgeStyle=orthogonalEdgeStyle;rounded=0;orthogonalLoop=1;jettySize=auto;html=1;exitX=0;exitY=0.5;exitDx=0;exitDy=0;" edge="1" parent="1" source="tA-CkoTOrNPdyP2uNprh-501" target="tA-CkoTOrNPdyP2uNprh-213">
          <mxGeometry relative="1" as="geometry" />
        </mxCell>
        <mxCell id="tA-CkoTOrNPdyP2uNprh-572" style="edgeStyle=orthogonalEdgeStyle;rounded=0;orthogonalLoop=1;jettySize=auto;html=1;exitX=1;exitY=0.5;exitDx=0;exitDy=0;entryX=1;entryY=0.5;entryDx=0;entryDy=0;" edge="1" parent="1" source="tA-CkoTOrNPdyP2uNprh-332" target="tA-CkoTOrNPdyP2uNprh-261">
          <mxGeometry relative="1" as="geometry" />
        </mxCell>
        <mxCell id="tA-CkoTOrNPdyP2uNprh-573" style="edgeStyle=orthogonalEdgeStyle;rounded=0;orthogonalLoop=1;jettySize=auto;html=1;exitX=1;exitY=0.5;exitDx=0;exitDy=0;entryX=1;entryY=0.5;entryDx=0;entryDy=0;" edge="1" parent="1" source="tA-CkoTOrNPdyP2uNprh-436" target="tA-CkoTOrNPdyP2uNprh-258">
          <mxGeometry relative="1" as="geometry" />
        </mxCell>
        <mxCell id="tA-CkoTOrNPdyP2uNprh-577" style="edgeStyle=orthogonalEdgeStyle;rounded=0;orthogonalLoop=1;jettySize=auto;html=1;exitX=1;exitY=0.5;exitDx=0;exitDy=0;entryX=1.006;entryY=-0.371;entryDx=0;entryDy=0;entryPerimeter=0;" edge="1" parent="1" source="tA-CkoTOrNPdyP2uNprh-495" target="tA-CkoTOrNPdyP2uNprh-273">
          <mxGeometry relative="1" as="geometry" />
        </mxCell>
        <mxCell id="tA-CkoTOrNPdyP2uNprh-579" style="edgeStyle=orthogonalEdgeStyle;rounded=0;orthogonalLoop=1;jettySize=auto;html=1;exitX=0;exitY=0.5;exitDx=0;exitDy=0;entryX=0.75;entryY=0;entryDx=0;entryDy=0;" edge="1" parent="1" source="tA-CkoTOrNPdyP2uNprh-354" target="tA-CkoTOrNPdyP2uNprh-212">
          <mxGeometry relative="1" as="geometry">
            <Array as="points">
              <mxPoint x="-50" y="175" />
              <mxPoint x="-50" y="50" />
              <mxPoint x="-490" y="50" />
            </Array>
          </mxGeometry>
        </mxCell>
        <mxCell id="tA-CkoTOrNPdyP2uNprh-580" style="edgeStyle=orthogonalEdgeStyle;rounded=0;orthogonalLoop=1;jettySize=auto;html=1;exitX=0;exitY=0.5;exitDx=0;exitDy=0;entryX=0.75;entryY=0;entryDx=0;entryDy=0;" edge="1" parent="1" source="tA-CkoTOrNPdyP2uNprh-373" target="tA-CkoTOrNPdyP2uNprh-212">
          <mxGeometry relative="1" as="geometry">
            <Array as="points">
              <mxPoint x="-40" y="425" />
              <mxPoint x="-40" y="50" />
              <mxPoint x="-490" y="50" />
            </Array>
          </mxGeometry>
        </mxCell>
        <mxCell id="tA-CkoTOrNPdyP2uNprh-581" style="edgeStyle=orthogonalEdgeStyle;rounded=0;orthogonalLoop=1;jettySize=auto;html=1;exitX=0;exitY=0.5;exitDx=0;exitDy=0;entryX=0.857;entryY=0;entryDx=0;entryDy=0;entryPerimeter=0;" edge="1" parent="1" source="tA-CkoTOrNPdyP2uNprh-398" target="tA-CkoTOrNPdyP2uNprh-212">
          <mxGeometry relative="1" as="geometry">
            <Array as="points">
              <mxPoint x="-30" y="735" />
              <mxPoint x="-30" y="50" />
              <mxPoint x="-460" y="50" />
            </Array>
          </mxGeometry>
        </mxCell>
        <mxCell id="tA-CkoTOrNPdyP2uNprh-582" style="edgeStyle=orthogonalEdgeStyle;rounded=0;orthogonalLoop=1;jettySize=auto;html=1;exitX=0;exitY=0.5;exitDx=0;exitDy=0;entryX=1;entryY=0.5;entryDx=0;entryDy=0;" edge="1" parent="1" source="tA-CkoTOrNPdyP2uNprh-417" target="tA-CkoTOrNPdyP2uNprh-267">
          <mxGeometry relative="1" as="geometry" />
        </mxCell>
        <mxCell id="tA-CkoTOrNPdyP2uNprh-583" style="edgeStyle=orthogonalEdgeStyle;rounded=0;orthogonalLoop=1;jettySize=auto;html=1;exitX=0;exitY=0.5;exitDx=0;exitDy=0;entryX=1;entryY=0.5;entryDx=0;entryDy=0;" edge="1" parent="1" source="tA-CkoTOrNPdyP2uNprh-414" target="tA-CkoTOrNPdyP2uNprh-216">
          <mxGeometry relative="1" as="geometry">
            <Array as="points">
              <mxPoint x="-60" y="965" />
              <mxPoint x="-60" y="30" />
              <mxPoint x="-420" y="30" />
            </Array>
          </mxGeometry>
        </mxCell>
        <mxCell id="tA-CkoTOrNPdyP2uNprh-584" style="edgeStyle=orthogonalEdgeStyle;rounded=0;orthogonalLoop=1;jettySize=auto;html=1;exitX=0;exitY=0.5;exitDx=0;exitDy=0;entryX=0.983;entryY=-0.542;entryDx=0;entryDy=0;entryPerimeter=0;" edge="1" parent="1" source="tA-CkoTOrNPdyP2uNprh-526" target="tA-CkoTOrNPdyP2uNprh-258">
          <mxGeometry relative="1" as="geometry" />
        </mxCell>
        <mxCell id="tA-CkoTOrNPdyP2uNprh-585" style="edgeStyle=orthogonalEdgeStyle;rounded=0;orthogonalLoop=1;jettySize=auto;html=1;exitX=0;exitY=0.5;exitDx=0;exitDy=0;entryX=0.581;entryY=-0.003;entryDx=0;entryDy=0;entryPerimeter=0;" edge="1" parent="1" source="tA-CkoTOrNPdyP2uNprh-532" target="tA-CkoTOrNPdyP2uNprh-212">
          <mxGeometry relative="1" as="geometry">
            <Array as="points">
              <mxPoint x="-40" y="1395" />
              <mxPoint x="-40" y="50" />
              <mxPoint x="-537" y="50" />
            </Array>
          </mxGeometry>
        </mxCell>
      </root>
    </mxGraphModel>
  </diagram>
</mxfile>
